<svg viewBox="0 0 820 642" fill="none" xmlns="http://www.w3.org/2000/svg">
<path d="M380.962 406.148L367.835 393.011L476.413 284.787L389.559 197.866L280.981 306.09L267.635 292.734L376.213 184.51L358.492 166.775L372.396 152.861L390.336 170.815L434.032 127.084L447.159 140.221L403.462 183.951L490.317 270.873L534.232 227.361L547.14 240.279L380.962 406.148Z" fill="url(#paint0_radial_24_13515)"/>
<path d="M61.425 601.029L23.2882 562.862C14.375 553.942 8.07698 544.306 4.39424 533.953C1.00243 523.602 -0.425821 513.187 0.109433 502.707C0.644687 492.228 3.07297 482.194 7.39435 472.605C11.7157 463.016 17.3515 454.597 24.3017 447.349C33.4255 438.218 43.2877 431.565 53.8883 427.391C64.6337 423.071 75.2433 420.935 85.7172 420.982C96.482 421.03 106.674 423.113 116.293 427.232C126.057 431.206 134.592 436.849 141.898 444.161L180.035 482.327L426.918 235.253L440.068 248.414L193.186 495.488L230.665 532.996C237.971 540.308 243.609 548.849 247.58 558.621C251.696 568.247 253.705 578.374 253.607 589.001C253.8 599.629 251.738 610.32 247.422 621.074C243.25 631.683 236.603 641.553 227.479 650.683C220.237 657.639 211.825 663.279 202.243 667.604C192.661 671.929 182.635 674.359 172.164 674.894C161.692 675.43 151.212 673.928 140.723 670.387C130.524 666.848 120.968 660.618 112.055 651.698L74.5757 614.189L50.8971 637.886L37.7464 624.726L61.425 601.029ZM88.2614 600.493L125.741 638.001C131.732 643.997 138.516 648.467 146.093 651.413C153.961 654.359 161.896 655.778 169.896 655.668C177.896 655.558 185.745 653.991 193.441 650.969C201.137 647.946 208.027 643.391 214.109 637.303C221.061 630.346 226.192 622.872 229.502 614.88C232.957 606.743 234.739 598.671 234.849 590.664C235.104 582.513 233.614 574.645 230.38 567.061C227.437 559.477 222.97 552.688 216.979 546.693L179.5 509.184L88.2614 600.493ZM166.349 496.023L128.212 457.857C122.221 451.862 115.364 447.318 107.641 444.226C100.208 441.136 92.4193 439.718 84.2743 439.973C76.2741 440.083 68.2086 441.867 60.0778 445.325C52.0918 448.638 44.623 453.772 37.6715 460.729C31.589 466.816 27.0374 473.711 24.0169 481.414C20.9963 489.116 19.4311 496.97 19.3212 504.977C19.2114 512.983 20.5556 520.85 23.3538 528.579C26.443 536.308 30.9831 543.171 36.9739 549.166L75.1107 587.332L166.349 496.023Z" fill="url(#paint1_radial_24_13515)"/>
<path d="M572.038 268.852L585.165 281.989L476.587 390.213L563.441 477.134L672.019 368.91L685.365 382.266L576.787 490.49L594.508 508.225L580.604 522.139L562.664 504.185L518.968 547.916L505.841 534.779L549.538 491.049L462.683 404.127L418.768 447.639L405.86 434.721L572.038 268.852Z" fill="url(#paint2_radial_24_13515)"/>
<path d="M891.575 73.9714L929.712 112.138C938.625 121.058 944.923 130.694 948.606 141.047C951.998 151.398 953.426 161.813 952.891 172.293C952.355 182.772 949.927 192.806 945.606 202.395C941.284 211.984 935.648 220.403 928.698 227.651C919.574 236.782 909.712 243.435 899.112 247.609C888.366 251.929 877.757 254.065 867.283 254.018C856.518 253.971 846.326 251.887 836.707 247.768C826.943 243.794 818.408 238.151 811.102 230.839L772.965 192.673L526.082 439.747L512.932 426.586L759.814 179.512L722.335 142.004C715.029 134.692 709.391 126.151 705.42 116.379C701.304 106.753 699.295 96.6258 699.393 85.9989C699.2 75.3707 701.262 64.6797 705.578 53.926C709.75 43.3173 716.397 33.4475 725.521 24.3166C732.763 17.361 741.175 11.7209 750.757 7.39615C760.339 3.07143 770.365 0.641258 780.836 0.105587C791.308 -0.430076 801.788 1.0724 812.277 4.61305C822.476 8.15241 832.032 14.3822 840.945 23.3023L878.424 60.8106L902.103 37.1137L915.254 50.2744L891.575 73.9714ZM864.739 74.5068L827.259 36.9986C821.268 31.0031 814.484 26.5327 806.907 23.5873C799.039 20.6407 791.104 19.2223 783.104 19.3322C775.104 19.4422 767.255 21.0086 759.559 24.0315C751.863 27.0544 744.973 31.6095 738.891 37.6967C731.939 44.6536 726.808 52.1281 723.498 60.1203C720.043 68.2574 718.261 76.3291 718.151 84.3355C717.896 92.4869 719.386 100.355 722.62 107.939C725.563 115.523 730.03 122.312 736.021 128.308L773.5 165.816L864.739 74.5068ZM786.651 178.977L824.788 217.143C830.779 223.138 837.636 227.682 845.359 230.774C852.792 233.864 860.581 235.282 868.726 235.027C876.726 234.917 884.791 233.133 892.922 229.675C900.908 226.363 908.377 221.228 915.328 214.271C921.411 208.184 925.963 201.289 928.983 193.587C932.004 185.884 933.569 178.03 933.679 170.023C933.789 162.017 932.444 154.15 929.646 146.421C926.557 138.692 922.017 131.829 916.026 125.834L877.889 87.6676L786.651 178.977Z" fill="url(#paint3_radial_24_13515)"/>
<defs>
<radialGradient id="paint0_radial_24_13515" cx="0" cy="0" r="1" gradientUnits="userSpaceOnUse" gradientTransform="translate(476.5 337.5) rotate(90) scale(337.5 476.5)">
<stop stop-color="#FA864B"/>
<stop offset="1" stop-color="#FA864B" stop-opacity="0"/>
</radialGradient>
<radialGradient id="paint1_radial_24_13515" cx="0" cy="0" r="1" gradientUnits="userSpaceOnUse" gradientTransform="translate(476.5 337.5) rotate(90) scale(337.5 476.5)">
<stop stop-color="#FA864B"/>
<stop offset="1" stop-color="#FA864B" stop-opacity="0"/>
</radialGradient>
<radialGradient id="paint2_radial_24_13515" cx="0" cy="0" r="1" gradientUnits="userSpaceOnUse" gradientTransform="translate(476.5 337.5) rotate(90) scale(337.5 476.5)">
<stop stop-color="#FA864B"/>
<stop offset="1" stop-color="#FA864B" stop-opacity="0"/>
</radialGradient>
<radialGradient id="paint3_radial_24_13515" cx="0" cy="0" r="1" gradientUnits="userSpaceOnUse" gradientTransform="translate(476.5 337.5) rotate(90) scale(337.5 476.5)">
<stop stop-color="#FA864B"/>
<stop offset="1" stop-color="#FA864B" stop-opacity="0"/>
</radialGradient>
</defs>
</svg>
