<svg width="844" height="683" viewBox="0 0 844 683" fill="none" xmlns="http://www.w3.org/2000/svg">
<path d="M264.158 411.563L250.853 398.251L360.912 288.584L272.873 200.504L162.814 310.171L149.286 296.637L259.345 186.97L241.383 168.999L255.476 154.899L273.66 173.092L317.953 128.779L331.259 142.09L286.966 186.404L375.005 274.484L419.52 230.393L432.604 243.483L264.158 411.563Z" fill="url(#paint0_radial_29_17992)"/>
<path d="M-59.7371 609.042L-98.3941 570.367C-107.429 561.328 -113.813 551.563 -117.546 541.073C-120.984 530.583 -122.432 520.029 -121.889 509.41C-121.347 498.791 -118.885 488.623 -114.505 478.906C-110.124 469.189 -104.412 460.658 -97.3668 453.314C-88.1185 444.061 -78.1218 437.32 -67.3766 433.089C-56.4846 428.712 -45.7303 426.547 -35.1135 426.595C-24.2018 426.643 -13.8708 428.755 -4.1204 432.929C5.7768 436.956 14.4283 442.674 21.8338 450.083L60.4909 488.758L310.741 238.39L324.071 251.726L73.8209 502.094L111.811 540.103C119.217 547.512 124.932 556.167 128.958 566.069C133.13 575.824 135.166 586.086 135.066 596.854C135.262 607.624 133.172 618.458 128.797 629.355C124.569 640.105 117.83 650.107 108.582 659.359C101.241 666.408 92.7141 672.123 83.0018 676.505C73.2894 680.888 63.1262 683.35 52.5121 683.893C41.898 684.436 31.2746 682.913 20.6421 679.325C10.3045 675.739 0.618332 669.426 -8.41647 660.387L-46.407 622.379L-70.4086 646.391L-83.7387 633.055L-59.7371 609.042ZM-32.5346 608.5L5.45592 646.508C11.5285 652.584 18.4052 657.114 26.086 660.098C34.0617 663.084 42.1042 664.521 50.2136 664.41C58.323 664.299 66.2783 662.711 74.0797 659.648C81.881 656.585 88.8644 651.969 95.0299 645.801C102.076 638.751 107.277 631.177 110.632 623.078C114.135 614.833 115.941 606.653 116.053 598.54C116.311 590.28 114.801 582.307 111.523 574.621C108.539 566.937 104.012 560.057 97.939 553.982L59.9484 515.973L-32.5346 608.5ZM46.6184 502.637L7.9613 463.962C1.88873 457.886 -5.06195 453.282 -12.8908 450.149C-20.4248 447.018 -28.3199 445.581 -36.5761 445.84C-44.6855 445.951 -52.861 447.759 -61.1027 451.262C-69.1976 454.619 -76.7683 459.823 -83.8146 466.872C-89.9801 473.041 -94.5937 480.027 -97.6555 487.832C-100.717 495.637 -102.304 503.596 -102.415 511.71C-102.527 519.823 -101.164 527.795 -98.3276 535.626C-95.1962 543.459 -90.5943 550.413 -84.5217 556.488L-45.8647 595.164L46.6184 502.637Z" fill="url(#paint1_radial_29_17992)"/>
<path d="M457.842 272.437L471.147 285.749L361.088 395.416L449.127 483.496L559.186 373.829L572.714 387.363L462.655 497.03L480.617 515.001L466.524 529.101L448.34 510.908L404.047 555.221L390.741 541.91L435.034 497.596L346.995 409.516L302.48 453.607L289.396 440.517L457.842 272.437Z" fill="url(#paint2_radial_29_17992)"/>
<path d="M781.737 74.9576L820.394 113.633C829.429 122.672 835.813 132.437 839.546 142.927C842.984 153.417 844.432 163.971 843.889 174.59C843.347 185.209 840.885 195.377 836.505 205.094C832.125 214.811 826.412 223.342 819.367 230.686C810.119 239.939 800.122 246.68 789.377 250.911C778.485 255.288 767.73 257.453 757.114 257.405C746.202 257.357 735.871 255.245 726.12 251.071C716.223 247.044 707.572 241.326 700.166 233.917L661.509 195.242L411.259 445.61L397.929 432.274L648.179 181.906L610.189 143.897C602.783 136.488 597.068 127.833 593.042 117.931C588.87 108.176 586.834 97.9142 586.934 87.1456C586.738 76.3756 588.828 65.5421 593.203 54.6451C597.431 43.8948 604.17 33.8934 613.418 24.6408C620.759 17.5925 629.286 11.8771 638.998 7.49476C648.711 3.11239 658.874 0.649809 669.488 0.106995C680.102 -0.43581 690.725 1.0867 701.358 4.67456C711.695 8.26111 721.382 14.5739 730.417 23.613L768.407 61.6214L792.409 37.6085L805.739 50.9448L781.737 74.9576ZM754.535 75.5003L716.544 37.4919C710.471 31.4165 703.595 26.8865 695.914 23.9018C687.938 20.9159 679.896 19.4786 671.786 19.59C663.677 19.7014 655.722 21.2887 647.92 24.352C640.119 27.4151 633.136 32.0309 626.97 38.1993C619.924 45.249 614.723 52.8232 611.368 60.9219C607.865 69.1675 606.059 77.3468 605.947 85.46C605.689 93.72 607.199 101.693 610.477 109.379C613.461 117.063 617.988 123.943 624.061 130.018L662.052 168.027L754.535 75.5003ZM675.382 181.363L714.039 220.038C720.111 226.114 727.062 230.718 734.891 233.851C742.425 236.982 750.32 238.419 758.576 238.16C766.685 238.049 774.861 236.241 783.103 232.738C791.198 229.381 798.768 224.177 805.815 217.128C811.98 210.959 816.594 203.973 819.656 196.168C822.717 188.363 824.304 180.404 824.415 172.29C824.527 164.177 823.164 156.205 820.328 148.374C817.196 140.541 812.594 133.587 806.522 127.512L767.865 88.8365L675.382 181.363Z" fill="url(#paint3_radial_29_17992)"/>
<defs>
<radialGradient id="paint0_radial_29_17992" cx="0" cy="0" r="1" gradientUnits="userSpaceOnUse" gradientTransform="translate(361 342) rotate(90) scale(342 483)">
<stop stop-color="#FA864B"/>
<stop offset="1" stop-color="#FA864B" stop-opacity="0"/>
</radialGradient>
<radialGradient id="paint1_radial_29_17992" cx="0" cy="0" r="1" gradientUnits="userSpaceOnUse" gradientTransform="translate(361 342) rotate(90) scale(342 483)">
<stop stop-color="#FA864B"/>
<stop offset="1" stop-color="#FA864B" stop-opacity="0"/>
</radialGradient>
<radialGradient id="paint2_radial_29_17992" cx="0" cy="0" r="1" gradientUnits="userSpaceOnUse" gradientTransform="translate(361 342) rotate(90) scale(342 483)">
<stop stop-color="#FA864B"/>
<stop offset="1" stop-color="#FA864B" stop-opacity="0"/>
</radialGradient>
<radialGradient id="paint3_radial_29_17992" cx="0" cy="0" r="1" gradientUnits="userSpaceOnUse" gradientTransform="translate(361 342) rotate(90) scale(342 483)">
<stop stop-color="#FA864B"/>
<stop offset="1" stop-color="#FA864B" stop-opacity="0"/>
</radialGradient>
</defs>
</svg>
