<svg width="1065" height="422" viewBox="0 0 1065 422" fill="none" xmlns="http://www.w3.org/2000/svg">
<path d="M59.8725 281.503H182.176V100.791L59.8725 281.503ZM212.88 281.503H322.39V313.573H212.88V417.928H182.176V313.573H0L212.88 0V281.503Z" fill="url(#paint0_radial_35_9031)"/>
<path d="M689.453 226.017C689.453 202.261 685.189 180.372 676.66 160.35C668.131 140.327 656.532 123.189 641.862 108.936C627.534 94.3434 610.988 82.9747 592.225 74.8299C573.461 66.6852 553.845 62.6128 533.376 62.6128C510.177 62.6128 488.855 67.1942 469.409 76.357C450.305 85.5199 433.929 97.737 420.283 113.008C406.637 128.28 395.89 145.757 388.044 165.44C380.539 185.123 376.786 205.316 376.786 226.017C376.786 247.736 380.709 268.437 388.556 288.121C396.402 307.804 407.149 325.281 420.795 340.552C434.782 355.484 451.328 367.532 470.433 376.695C489.878 385.518 510.859 389.93 533.376 389.93C554.868 389.93 574.996 385.688 593.76 377.204C612.864 368.38 629.41 356.672 643.398 342.08C657.385 327.148 668.473 309.67 676.66 289.648C685.189 269.625 689.453 248.415 689.453 226.017ZM553.333 226.017C553.333 231.786 551.286 236.707 547.192 240.779C543.44 244.852 538.834 246.888 533.376 246.888C527.917 246.888 523.141 244.852 519.047 240.779C515.294 236.707 513.418 231.786 513.418 226.017C513.418 220.248 515.294 215.327 519.047 211.255C523.141 207.182 527.917 205.146 533.376 205.146C538.834 205.146 543.44 207.182 547.192 211.255C551.286 215.327 553.333 220.248 553.333 226.017ZM720.669 226.017C720.669 251.469 716.063 276.073 706.852 299.829C697.641 323.245 684.677 344.116 667.961 362.441C651.585 380.428 631.798 394.851 608.6 405.71C585.743 416.57 560.668 422 533.376 422C507.789 422 483.567 416.91 460.71 406.729C438.194 396.208 418.407 382.125 401.349 364.478C384.291 346.831 370.816 326.129 360.922 302.374C351.029 278.618 346.082 253.166 346.082 226.017C346.082 199.207 351.029 173.924 360.922 150.169C370.816 126.074 384.121 105.203 400.837 87.5561C417.895 69.9091 437.682 55.9952 460.198 45.8142C483.055 35.2939 507.448 30.0338 533.376 30.0338C558.28 30.0338 581.99 34.9546 604.506 44.7961C627.363 54.6377 647.321 68.382 664.379 86.029C681.436 103.676 695.082 124.547 705.317 148.642C715.552 172.397 720.669 198.189 720.669 226.017Z" fill="url(#paint1_radial_35_9031)"/>
<path d="M802.482 281.503H924.786V100.791L802.482 281.503ZM955.49 281.503H1065V313.573H955.49V417.928H924.786V313.573H742.609L955.49 0V281.503Z" fill="url(#paint2_radial_35_9031)"/>
<defs>
<radialGradient id="paint0_radial_35_9031" cx="0" cy="0" r="1" gradientUnits="userSpaceOnUse" gradientTransform="translate(532.5 211) rotate(90) scale(211 532.5)">
<stop stop-color="#FA864B"/>
<stop offset="1" stop-color="#FA864B" stop-opacity="0"/>
</radialGradient>
<radialGradient id="paint1_radial_35_9031" cx="0" cy="0" r="1" gradientUnits="userSpaceOnUse" gradientTransform="translate(532.5 211) rotate(90) scale(211 532.5)">
<stop stop-color="#FA864B"/>
<stop offset="1" stop-color="#FA864B" stop-opacity="0"/>
</radialGradient>
<radialGradient id="paint2_radial_35_9031" cx="0" cy="0" r="1" gradientUnits="userSpaceOnUse" gradientTransform="translate(532.5 211) rotate(90) scale(211 532.5)">
<stop stop-color="#FA864B"/>
<stop offset="1" stop-color="#FA864B" stop-opacity="0"/>
</radialGradient>
</defs>
</svg>
