<svg viewBox="0 0 165 40" fill="none" xmlns="http://www.w3.org/2000/svg">
<path d="M13.032 16.7427H11.9476L11.9656 7.76816H4.79023L4.77216 16.7427H3.66964L3.68772 7.76816H2.22372V6.61664H3.70579V2.9976H4.79023V6.61664H11.9656L11.9837 2.9976H13.0501L13.032 16.7427Z" fill="#FA864B"/>
<path d="M32.3056 9.85185C32.3056 8.99888 32.1489 8.21292 31.8356 7.49399C31.5344 6.76287 31.1247 6.14141 30.6066 5.62963C30.1005 5.10566 29.5161 4.69745 28.8534 4.405C28.1907 4.11256 27.4979 3.96633 26.7749 3.96633C25.9556 3.96633 25.2025 4.13692 24.5157 4.47811C23.8409 4.80712 23.2625 5.24579 22.7805 5.79413C22.2986 6.34247 21.919 6.97002 21.6419 7.67677C21.3768 8.38352 21.2443 9.10855 21.2443 9.85185C21.2443 10.6317 21.3828 11.375 21.66 12.0818C21.9371 12.7885 22.3166 13.4161 22.7986 13.9644C23.2926 14.5006 23.877 14.927 24.5518 15.2439C25.2266 15.5607 25.9676 15.7191 26.7749 15.7191C27.534 15.7191 28.251 15.5668 28.9257 15.2621C29.6005 14.9453 30.1849 14.5249 30.6789 14.001C31.1729 13.4648 31.5645 12.8434 31.8537 12.1366C32.1549 11.4177 32.3056 10.6561 32.3056 9.85185ZM33.39 9.85185C33.39 10.7658 33.2273 11.6492 32.902 12.5022C32.5767 13.343 32.1188 14.0924 31.5284 14.7504C30.95 15.3962 30.2512 15.9141 29.4318 16.304C28.6245 16.6939 27.7389 16.8889 26.7749 16.8889C25.8712 16.8889 25.0157 16.7061 24.2084 16.3405C23.4131 15.9628 22.7143 15.4571 22.1118 14.8235C21.5093 14.1898 21.0334 13.4465 20.684 12.5936C20.3345 11.7406 20.1598 10.8267 20.1598 9.85185C20.1598 8.88921 20.3345 7.9814 20.684 7.12843C21.0334 6.26327 21.5033 5.51387 22.0937 4.88023C22.6962 4.24659 23.3951 3.74699 24.1903 3.38143C24.9976 3.00369 25.8592 2.81482 26.7749 2.81482C27.6545 2.81482 28.4919 2.9915 29.2872 3.34488C30.0945 3.69825 30.7994 4.19176 31.4019 4.8254C32.0164 5.45904 32.4984 6.20844 32.8478 7.07359C33.2093 7.92657 33.39 8.85265 33.39 9.85185Z" fill="#FA864B"/>
<path d="M52.6698 9.85185C52.7662 10.1321 52.8445 10.4246 52.9048 10.7292C52.965 11.0338 52.9951 11.3507 52.9951 11.6797C52.9951 12.3133 52.8807 12.9347 52.6517 13.544C52.4228 14.1411 52.0975 14.6773 51.6757 15.1525C51.266 15.6277 50.766 16.0115 50.1756 16.304C49.5972 16.5964 48.9465 16.7427 48.2236 16.7427H41.8073V7.76816H40.3794V6.61664H41.8073V2.96104H48.2236C48.5248 2.96104 48.814 3.02806 49.0911 3.1621C49.3683 3.28395 49.6093 3.45455 49.8141 3.67388C50.0189 3.89322 50.1816 4.14911 50.3021 4.44156C50.4226 4.73401 50.4828 5.04473 50.4828 5.37374C50.4828 5.98301 50.2961 6.50698 49.9225 6.94565C50.5491 7.20154 51.0974 7.58538 51.5673 8.09716C52.0493 8.59676 52.4168 9.18166 52.6698 9.85185ZM49.3984 5.37374C49.3984 4.98381 49.2719 4.67917 49.0188 4.45984C48.7779 4.22832 48.5128 4.11255 48.2236 4.11255H42.8917V6.61664H48.314C48.6152 6.61664 48.8682 6.49479 49.0731 6.25108C49.2899 5.99519 49.3984 5.70274 49.3984 5.37374ZM51.4588 9.85185C51.1456 9.2304 50.6877 8.7308 50.0852 8.35306C49.4827 7.96312 48.7839 7.76816 47.9886 7.76816H42.8917V15.5729H48.2236C48.7297 15.5729 49.2056 15.4754 49.6514 15.2804C50.0973 15.0733 50.4828 14.793 50.8082 14.4396C51.1456 14.0863 51.4106 13.672 51.6034 13.1967C51.7962 12.7215 51.8926 12.2158 51.8926 11.6797C51.8926 11.0338 51.748 10.4246 51.4588 9.85185Z" fill="#FA864B"/>
<path d="M70.6682 9.85185C70.3549 9.26696 69.9211 8.79782 69.3668 8.44445C68.8246 8.09107 68.2101 7.91438 67.5233 7.91438H62.318V15.518H67.5233C67.9329 15.518 68.3487 15.4388 68.7704 15.2804C69.2042 15.1098 69.5897 14.8661 69.9271 14.5493C70.2766 14.2203 70.5597 13.8182 70.7766 13.343C71.0055 12.8555 71.12 12.3011 71.12 11.6797C71.12 11.3263 71.0778 11.0034 70.9935 10.7109C70.9212 10.4185 70.8128 10.1321 70.6682 9.85185ZM61.2335 2.97932H62.2999L62.318 6.74459H67.5233C68.0534 6.74459 68.5475 6.82989 69.0053 7.00048C69.4632 7.15889 69.8789 7.38432 70.2525 7.67677C70.626 7.95703 70.9453 8.28604 71.2104 8.66378C71.4875 9.02934 71.7044 9.42537 71.8611 9.85185C71.9815 10.1687 72.0719 10.4733 72.1322 10.7658C72.1924 11.0582 72.2225 11.3628 72.2225 11.6797C72.2225 12.4473 72.084 13.1419 71.8068 13.7633C71.5297 14.3848 71.1622 14.9088 70.7043 15.3353C70.2585 15.7617 69.7524 16.0907 69.1861 16.3223C68.6318 16.5538 68.0775 16.6696 67.5233 16.6696H61.2335V7.91438H59.7334V6.76287H61.2335V2.97932ZM74.3733 16.6696H73.2708V2.92448H74.3733V16.6696Z" fill="#FA864B"/>
<path d="M90.5328 2.9976H91.6172V16.6696H90.5328V4.89851L82.6345 16.6696H81.5319V2.9976H82.6345V14.7686L90.5328 2.9976ZM89.4122 0C89.4122 0.377746 89.3399 0.725029 89.1953 1.04185C89.0628 1.35867 88.87 1.63284 88.617 1.86436C88.376 2.09588 88.0928 2.27866 87.7675 2.4127C87.4421 2.53455 87.0987 2.59548 86.7373 2.59548C86.3758 2.59548 86.0324 2.52846 85.707 2.39442C85.3938 2.26038 85.1106 2.0776 84.8576 1.84608C84.6166 1.60237 84.4238 1.32211 84.2792 1.00529C84.1466 0.688473 84.0804 0.353376 84.0804 0H85.219C85.2431 0.377746 85.3335 0.688472 85.4901 0.932179C85.6588 1.17589 85.8516 1.35867 86.0685 1.48052C86.2974 1.60237 86.5385 1.6633 86.7915 1.6633C87.0445 1.65111 87.2795 1.5841 87.4964 1.46224C87.7253 1.34039 87.9121 1.15761 88.0567 0.913901C88.2013 0.670195 88.2796 0.365561 88.2916 0H89.4122Z" fill="#FA864B"/>
<path d="M7.87661 38.0389H4.72597C3.98961 38.0389 3.33172 37.901 2.75229 37.6251C2.18493 37.3372 1.69604 36.9654 1.28561 36.5096C0.875179 36.0538 0.561322 35.5381 0.344036 34.9623C0.12675 34.3866 0.0120714 33.8048 0 33.2171C0 32.4615 0.132786 31.7778 0.398357 31.1661C0.663929 30.5423 1.014 30.0146 1.44857 29.5828C1.89522 29.139 2.40222 28.8031 2.96957 28.5753C3.53693 28.3354 4.12239 28.2154 4.72597 28.2154H7.87661V7.76816H8.96304V28.2154H12.0594C12.6629 28.2154 13.2484 28.3354 13.8158 28.5753C14.3831 28.8031 14.8841 29.139 15.3187 29.5828C15.7653 30.0146 16.1214 30.5423 16.387 31.1661C16.6525 31.7778 16.7853 32.4615 16.7853 33.2171C16.7733 33.8048 16.6586 34.3866 16.4413 34.9623C16.224 35.5381 15.9102 36.0538 15.4997 36.5096C15.0893 36.9654 14.5944 37.3372 14.0149 37.6251C13.4476 37.901 12.7957 38.0389 12.0594 38.0389H8.96304V40H7.87661V38.0389ZM8.96304 36.9054H12.0594C12.5543 36.9054 13.019 36.8095 13.4536 36.6176C13.9003 36.4137 14.2865 36.1438 14.6125 35.8079C14.9384 35.4721 15.1979 35.0823 15.3911 34.6385C15.5842 34.1947 15.6808 33.7209 15.6808 33.2171C15.6808 32.6414 15.5842 32.1196 15.3911 31.6518C15.1979 31.1721 14.9384 30.7642 14.6125 30.4284C14.2865 30.0806 13.9003 29.8167 13.4536 29.6368C13.019 29.4448 12.5543 29.3489 12.0594 29.3489H8.96304V36.9054ZM7.87661 29.3489H4.72597C4.23104 29.3489 3.76025 29.4448 3.31361 29.6368C2.87904 29.8167 2.49879 30.0806 2.17286 30.4284C1.84693 30.7642 1.58739 31.1721 1.39425 31.6518C1.20111 32.1196 1.10454 32.6414 1.10454 33.2171C1.10454 33.7209 1.20111 34.1947 1.39425 34.6385C1.58739 35.0823 1.84693 35.4721 2.17286 35.8079C2.49879 36.1438 2.87904 36.4137 3.31361 36.6176C3.76025 36.8095 4.23104 36.9054 4.72597 36.9054H7.87661V29.3489Z" fill="#FA864B"/>
<path d="M33.1682 29.8886C33.0716 29.5288 32.9026 29.199 32.6612 28.8991C32.4318 28.5992 32.1602 28.3414 31.8464 28.1255C31.5325 27.9096 31.1945 27.7416 30.8324 27.6217C30.4823 27.4897 30.1262 27.4238 29.7641 27.4238C29.4019 27.4238 29.0398 27.4838 28.6776 27.6037C28.3276 27.7236 28.0016 27.8976 27.6998 28.1255C27.3981 28.3414 27.1265 28.5992 26.885 28.8991C26.6557 29.199 26.4867 29.5288 26.378 29.8886H33.1682ZM34.4719 40H33.3855V31.0221H26.1607V40H25.0743V31.0221H23.2455V29.8886H25.2373C25.3821 29.3609 25.5994 28.8811 25.8891 28.4493C26.1788 28.0055 26.5229 27.6277 26.9212 27.3158C27.3196 26.992 27.7602 26.7401 28.2431 26.5602C28.7259 26.3803 29.2329 26.2903 29.7641 26.2903C30.4038 26.2903 31.0074 26.4222 31.5748 26.6861C32.1542 26.938 32.6552 27.2858 33.0777 27.7296C33.5122 28.1734 33.8502 28.6952 34.0917 29.2949C34.3452 29.8946 34.4719 30.5304 34.4719 31.202V40Z" fill="#FA864B"/>
<path d="M54.6204 40H53.5339V27.6037C52.4837 27.6877 51.4878 28.0595 50.5462 28.7192C49.6167 29.3669 48.808 30.4104 48.1199 31.8497C47.8181 31.1541 47.4499 30.5483 47.0154 30.0326C46.5929 29.5048 46.1402 29.067 45.6573 28.7192C45.1865 28.3713 44.6976 28.1015 44.1906 27.9096C43.6957 27.7176 43.2129 27.6097 42.7421 27.5857V40H41.6556V26.4342C42.3316 26.4342 42.9714 26.4882 43.575 26.5962C44.1786 26.7041 44.7459 26.884 45.2771 27.1359C45.8082 27.3758 46.3092 27.6997 46.78 28.1075C47.2628 28.5033 47.7095 28.9891 48.1199 29.5648C48.8804 28.4733 49.7978 27.6817 50.8722 27.1899C51.9465 26.6861 53.1959 26.4342 54.6204 26.4342V40Z" fill="#FA864B"/>
<path d="M70.7714 26.4702H71.8578V39.928H70.7714V28.3414L62.8586 39.928H61.754V26.4702H62.8586V38.0569L70.7714 26.4702Z" fill="#FA864B"/>
<path d="M88.3151 39.928V27.5677H83.1002C82.6174 27.9875 82.1647 28.5932 81.7422 29.3849C81.3318 30.1765 80.9756 31.1121 80.6739 32.1916C80.3721 33.2591 80.1307 34.4525 79.9496 35.7719C79.7806 37.0793 79.7021 38.4647 79.7142 39.928H78.5553C78.5312 38.6806 78.5855 37.4452 78.7183 36.2217C78.8632 34.9863 79.0684 33.8288 79.3339 32.7493C79.6116 31.6578 79.9435 30.6683 80.3298 29.7807C80.7282 28.8811 81.1688 28.1434 81.6516 27.5677H79.7323V26.4342L89.4015 26.4162V39.928H88.3151Z" fill="#FA864B"/>
<path d="M107.191 33.2171C106.877 32.6414 106.442 32.1796 105.887 31.8318C105.344 31.4839 104.728 31.31 104.04 31.31H98.8251V38.7946H104.04C104.45 38.7946 104.867 38.7166 105.289 38.5607C105.724 38.3927 106.11 38.1528 106.448 37.841C106.798 37.5171 107.082 37.1213 107.299 36.6535C107.529 36.1738 107.643 35.628 107.643 35.0163C107.643 34.6685 107.601 34.3506 107.517 34.0627C107.444 33.7749 107.336 33.493 107.191 33.2171ZM97.7387 26.4522H98.807L98.8251 30.1585H104.04C104.571 30.1585 105.066 30.2425 105.525 30.4104C105.984 30.5663 106.4 30.7882 106.774 31.0761C107.148 31.352 107.468 31.6758 107.734 32.0477C108.012 32.4075 108.229 32.7973 108.386 33.2171C108.506 33.529 108.597 33.8288 108.657 34.1167C108.718 34.4046 108.748 34.7044 108.748 35.0163C108.748 35.7719 108.609 36.4556 108.331 37.0673C108.054 37.6791 107.686 38.1948 107.227 38.6146C106.78 39.0344 106.273 39.3583 105.706 39.5862C105.151 39.8141 104.595 39.928 104.04 39.928H97.7387V31.31H96.2358V30.1765H97.7387V26.4522Z" fill="#FA864B"/>
<path d="M126.134 40H125.048L125.066 31.1661H117.877L117.859 40H116.755L116.773 31.1661H115.306V30.0326H116.791V26.4702H117.877V30.0326H125.066L125.084 26.4702H126.152L126.134 40Z" fill="#FA864B"/>
<path d="M144.013 33.2171C143.699 32.6414 143.264 32.1796 142.709 31.8318C142.166 31.4839 141.55 31.31 140.862 31.31H135.647V38.7946H140.862C141.272 38.7946 141.689 38.7166 142.111 38.5607C142.546 38.3927 142.932 38.1528 143.27 37.841C143.62 37.5171 143.904 37.1213 144.121 36.6535C144.351 36.1738 144.465 35.628 144.465 35.0163C144.465 34.6685 144.423 34.3506 144.338 34.0627C144.266 33.7749 144.157 33.493 144.013 33.2171ZM134.561 26.4522H135.629L135.647 30.1585H140.862C141.393 30.1585 141.888 30.2425 142.347 30.4104C142.805 30.5663 143.222 30.7882 143.596 31.0761C143.97 31.352 144.29 31.6758 144.556 32.0477C144.833 32.4075 145.051 32.7973 145.208 33.2171C145.328 33.529 145.419 33.8288 145.479 34.1167C145.54 34.4046 145.57 34.7044 145.57 35.0163C145.57 35.7719 145.431 36.4556 145.153 37.0673C144.876 37.6791 144.507 38.1948 144.049 38.6146C143.602 39.0344 143.095 39.3583 142.528 39.5862C141.972 39.8141 141.417 39.928 140.862 39.928H134.561V31.31H133.058V30.1765H134.561V26.4522ZM147.725 39.928H146.62V26.3983H147.725V39.928Z" fill="#FA864B"/>
<path d="M163.914 26.4702H165V39.928H163.914V28.3414L156.001 39.928H154.896V26.4702H156.001V38.0569L163.914 26.4702ZM162.791 23.5196C162.791 23.8914 162.718 24.2332 162.574 24.5451C162.441 24.857 162.248 25.1268 161.994 25.3547C161.753 25.5826 161.469 25.7625 161.143 25.8945C160.817 26.0144 160.473 26.0744 160.111 26.0744C159.749 26.0744 159.405 26.0084 159.079 25.8765C158.765 25.7446 158.481 25.5646 158.228 25.3367C157.986 25.0968 157.793 24.821 157.649 24.5091C157.516 24.1973 157.449 23.8674 157.449 23.5196H158.59C158.614 23.8914 158.705 24.1973 158.862 24.4371C159.031 24.677 159.224 24.857 159.441 24.9769C159.67 25.0968 159.912 25.1568 160.165 25.1568C160.419 25.1448 160.654 25.0789 160.872 24.9589C161.101 24.839 161.288 24.659 161.433 24.4192C161.578 24.1793 161.656 23.8794 161.668 23.5196H162.791Z" fill="#FA864B"/>
<path d="M115.323 8.26485V5.32975H114.978C114.701 5.32975 114.44 5.38904 114.194 5.50763C113.948 5.62227 113.733 5.77841 113.546 5.97606C113.364 6.17371 113.22 6.40694 113.113 6.67574C113.006 6.9406 112.952 7.22126 112.952 7.51773V8.26485H112.596V7.51773C112.596 7.28451 112.626 7.05919 112.685 6.84177C112.744 6.6204 112.828 6.41287 112.935 6.21917C113.045 6.02548 113.178 5.85154 113.333 5.69738C113.491 5.53926 113.667 5.40683 113.861 5.3001C113.731 5.24476 113.61 5.16767 113.499 5.06885C113.392 4.96607 113.299 4.84946 113.22 4.71901C113.144 4.58461 113.085 4.4423 113.041 4.29208C113.002 4.13792 112.982 3.9798 112.982 3.81772H113.339C113.342 3.9798 113.37 4.13396 113.422 4.28022C113.477 4.42253 113.548 4.54705 113.636 4.65378C113.723 4.76051 113.824 4.8455 113.939 4.90875C114.053 4.972 114.176 5.00362 114.307 5.00362H115.323V3.81772H115.679V5.00362H116.695C116.826 5.00362 116.948 4.972 117.063 4.90875C117.178 4.8455 117.279 4.76051 117.366 4.65378C117.453 4.54705 117.523 4.42253 117.574 4.28022C117.63 4.13396 117.659 3.9798 117.663 3.81772H118.02C118.02 3.9798 117.998 4.13792 117.954 4.29208C117.915 4.4423 117.855 4.58461 117.776 4.71901C117.701 4.84946 117.608 4.96607 117.497 5.06885C117.39 5.16767 117.271 5.24476 117.141 5.3001C117.335 5.40683 117.509 5.53926 117.663 5.69738C117.822 5.85154 117.954 6.02548 118.061 6.21917C118.172 6.41287 118.257 6.6204 118.317 6.84177C118.376 7.05919 118.406 7.28451 118.406 7.51773V8.26485H118.049V7.51773C118.049 7.22126 117.996 6.9406 117.889 6.67574C117.782 6.40694 117.636 6.17371 117.449 5.97606C117.267 5.77841 117.053 5.62227 116.808 5.50763C116.562 5.38904 116.301 5.32975 116.024 5.32975H115.679V8.26485H115.323Z" fill="#FA864B"/>
<path d="M124.633 3.82958H124.989V8.26485H124.633V4.44625L122.036 8.26485H121.674V3.82958H122.036V7.64818L124.633 3.82958Z" fill="#FA864B"/>
<path d="M131.339 8.26485V4.19128H129.628C129.469 4.32964 129.321 4.52926 129.182 4.79016C129.048 5.05106 128.931 5.35939 128.832 5.71516C128.733 6.06698 128.654 6.46031 128.594 6.89514C128.539 7.32601 128.513 7.78259 128.517 8.26485H128.137C128.129 7.85374 128.147 7.44658 128.19 7.04337C128.238 6.63621 128.305 6.25475 128.392 5.89898C128.483 5.53926 128.592 5.21313 128.719 4.92061C128.85 4.62414 128.994 4.38103 129.153 4.19128H128.523V3.81772L131.695 3.81179V8.26485H131.339Z" fill="#FA864B"/>
<path d="M138.951 6.05315C138.951 5.77644 138.9 5.52147 138.797 5.28824C138.698 5.05106 138.563 4.84946 138.393 4.68343C138.226 4.51345 138.034 4.38103 137.817 4.28615C137.599 4.19128 137.371 4.14385 137.133 4.14385C136.864 4.14385 136.617 4.19919 136.391 4.30987C136.169 4.4166 135.979 4.55891 135.821 4.7368C135.662 4.91468 135.537 5.11826 135.446 5.34754C135.359 5.57681 135.316 5.81201 135.316 6.05315C135.316 6.30614 135.361 6.54727 135.452 6.77655C135.543 7.00582 135.668 7.2094 135.826 7.38728C135.989 7.56122 136.181 7.69957 136.403 7.80235C136.624 7.90513 136.868 7.95652 137.133 7.95652C137.383 7.95652 137.619 7.9071 137.84 7.80828C138.062 7.7055 138.254 7.56912 138.417 7.39914C138.579 7.22521 138.708 7.02361 138.803 6.79433C138.902 6.56111 138.951 6.31404 138.951 6.05315ZM139.308 6.05315C139.308 6.34962 139.254 6.63621 139.147 6.91292C139.04 7.18568 138.89 7.42879 138.696 7.64225C138.506 7.85176 138.276 8.01977 138.007 8.14626C137.741 8.27276 137.45 8.33601 137.133 8.33601C136.836 8.33601 136.555 8.27671 136.29 8.15812C136.028 8.03558 135.799 7.87153 135.601 7.66597C135.403 7.46042 135.246 7.21928 135.131 6.94257C135.017 6.66586 134.959 6.36939 134.959 6.05315C134.959 5.74086 135.017 5.44636 135.131 5.16965C135.246 4.88899 135.401 4.64588 135.595 4.44032C135.793 4.23476 136.023 4.07269 136.284 3.9541C136.549 3.83156 136.832 3.77029 137.133 3.77029C137.423 3.77029 137.698 3.82761 137.959 3.94224C138.224 4.05688 138.456 4.21698 138.654 4.42253C138.856 4.62809 139.015 4.8712 139.129 5.15186C139.248 5.42857 139.308 5.729 139.308 6.05315Z" fill="#FA864B"/>
<path d="M145.555 3.82958H145.912V8.26485H145.555V4.44625L142.959 8.26485H142.597V3.82958H142.959V7.64818L145.555 3.82958ZM145.187 2.85714C145.187 2.97969 145.163 3.09235 145.116 3.19513C145.072 3.2979 145.009 3.38685 144.926 3.46195C144.847 3.53706 144.753 3.59635 144.647 3.63984C144.54 3.67937 144.427 3.69913 144.308 3.69913C144.189 3.69913 144.076 3.67739 143.969 3.63391C143.866 3.59043 143.773 3.53113 143.69 3.45602C143.611 3.37696 143.548 3.28604 143.5 3.18327C143.456 3.08049 143.435 2.97178 143.435 2.85714H143.809C143.817 2.97969 143.847 3.08049 143.898 3.15955C143.953 3.23861 144.017 3.2979 144.088 3.33743C144.163 3.37696 144.243 3.39673 144.326 3.39673C144.409 3.39278 144.486 3.37103 144.557 3.3315C144.633 3.29197 144.694 3.23268 144.742 3.15362C144.789 3.07456 144.815 2.97573 144.819 2.85714H145.187Z" fill="#FA864B"/>
<path d="M113.065 13.6185H112.578V13.245H113.065V12.0531H113.422V13.239H114.438C114.568 13.239 114.691 13.2074 114.806 13.1442C114.921 13.0809 115.022 12.9959 115.109 12.8892C115.196 12.7825 115.265 12.658 115.317 12.5156C115.372 12.3694 115.402 12.2152 115.406 12.0531H115.762C115.762 12.2152 115.74 12.3733 115.697 12.5275C115.657 12.6777 115.598 12.82 115.519 12.9544C115.443 13.0849 115.35 13.2015 115.24 13.3043C115.133 13.4031 115.014 13.4802 114.883 13.5355C115.053 13.6264 115.204 13.7371 115.335 13.8676C115.469 13.9941 115.592 14.1344 115.703 14.2886C115.849 14.502 115.96 14.7313 116.036 14.9764C116.111 15.2215 116.148 15.4804 116.148 15.7532V16.524H115.792V15.7532C115.792 15.4685 115.742 15.2017 115.643 14.9527C115.548 14.6997 115.414 14.4783 115.24 14.2886C115.049 14.0751 114.83 13.9111 114.58 13.7964C114.331 13.6778 114.059 13.6185 113.766 13.6185H113.422V16.524H113.065V13.6185Z" fill="#FA864B"/>
<path d="M123.398 14.2886C123.398 14.0119 123.346 13.7569 123.243 13.5237C123.144 13.2865 123.009 13.0849 122.839 12.9189C122.673 12.7489 122.481 12.6164 122.263 12.5216C122.045 12.4267 121.817 12.3793 121.58 12.3793C121.31 12.3793 121.063 12.4346 120.837 12.5453C120.615 12.652 120.425 12.7943 120.267 12.9722C120.108 13.1501 119.984 13.3537 119.893 13.583C119.805 13.8122 119.762 14.0474 119.762 14.2886C119.762 14.5416 119.807 14.7827 119.899 15.012C119.99 15.2412 120.114 15.4448 120.273 15.6227C120.435 15.7966 120.627 15.935 120.849 16.0378C121.071 16.1406 121.314 16.1919 121.58 16.1919C121.829 16.1919 122.065 16.1425 122.287 16.0437C122.508 15.9409 122.701 15.8045 122.863 15.6346C123.025 15.4606 123.154 15.259 123.249 15.0298C123.348 14.7965 123.398 14.5495 123.398 14.2886ZM123.754 14.2886C123.754 14.585 123.701 14.8716 123.594 15.1483C123.487 15.4211 123.336 15.6642 123.142 15.8777C122.952 16.0872 122.722 16.2552 122.453 16.3817C122.188 16.5082 121.897 16.5714 121.58 16.5714C121.283 16.5714 121.002 16.5121 120.736 16.3935C120.475 16.271 120.245 16.107 120.047 15.9014C119.849 15.6958 119.693 15.4547 119.578 15.178C119.463 14.9013 119.405 14.6048 119.405 14.2886C119.405 13.9763 119.463 13.6818 119.578 13.4051C119.693 13.1244 119.847 12.8813 120.041 12.6757C120.239 12.4702 120.469 12.3081 120.73 12.1895C120.996 12.067 121.279 12.0057 121.58 12.0057C121.869 12.0057 122.144 12.063 122.405 12.1777C122.671 12.2923 122.903 12.4524 123.101 12.658C123.303 12.8635 123.461 13.1066 123.576 13.3873C123.695 13.664 123.754 13.9644 123.754 14.2886Z" fill="#FA864B"/>
<path d="M131.315 16.524H130.958V12.4386C130.614 12.4662 130.287 12.5888 129.978 12.8062C129.673 13.0197 129.408 13.3636 129.182 13.8379C129.083 13.6087 128.962 13.409 128.82 13.239C128.681 13.0651 128.532 12.9208 128.374 12.8062C128.22 12.6916 128.059 12.6026 127.893 12.5394C127.73 12.4761 127.572 12.4405 127.418 12.4326V16.524H127.061V12.0531C127.283 12.0531 127.493 12.0709 127.691 12.1065C127.889 12.1421 128.075 12.2014 128.249 12.2844C128.424 12.3635 128.588 12.4702 128.742 12.6046C128.901 12.735 129.047 12.8951 129.182 13.0849C129.431 12.7252 129.732 12.4643 130.085 12.3022C130.437 12.1362 130.847 12.0531 131.315 12.0531V16.524Z" fill="#FA864B"/>
<path d="M137.748 16.524H137.392V12.4445H134.992V16.524H134.629L134.635 12.0531H137.748V16.524Z" fill="#FA864B"/>
<path d="M144.125 16.5003V12.4267H142.414C142.256 12.5651 142.107 12.7647 141.969 13.0256C141.834 13.2865 141.717 13.5948 141.618 13.9506C141.519 14.3024 141.44 14.6957 141.381 15.1306C141.325 15.5614 141.299 16.018 141.303 16.5003H140.923C140.915 16.0892 140.933 15.682 140.977 15.2788C141.024 14.8716 141.091 14.4902 141.179 14.1344C141.27 13.7747 141.379 13.4486 141.505 13.156C141.636 12.8596 141.781 12.6164 141.939 12.4267H141.309V12.0531L144.482 12.0472V16.5003H144.125Z" fill="#FA864B"/>
<path d="M148.518 15.3144C148.534 15.4725 148.567 15.6049 148.619 15.7117C148.67 15.8144 148.738 15.8974 148.821 15.9607C148.904 16.02 149.003 16.0635 149.118 16.0911C149.233 16.1149 149.361 16.1267 149.504 16.1267H151.286V16.5003H149.504C149.326 16.5003 149.155 16.4805 148.993 16.441C148.835 16.3975 148.692 16.3283 148.565 16.2334C148.443 16.1386 148.342 16.016 148.262 15.8658C148.187 15.7156 148.144 15.5318 148.132 15.3144L148.138 13.6126H147.645V13.239H148.138C148.153 13.0335 148.199 12.8556 148.274 12.7054C148.353 12.5552 148.454 12.4326 148.577 12.3378C148.704 12.2389 148.847 12.1678 149.005 12.1243C149.167 12.0769 149.338 12.0531 149.516 12.0531H151.126V12.4267H149.516C149.373 12.4267 149.245 12.4405 149.13 12.4682C149.019 12.4919 148.922 12.5354 148.839 12.5987C148.759 12.6619 148.692 12.7469 148.637 12.8536C148.585 12.9564 148.548 13.0849 148.524 13.239H151.126V13.6126H148.518V15.3144Z" fill="#FA864B"/>
<path d="M154.905 13.6185H154.418V13.245H154.905V12.0531H155.262V13.239H156.278C156.408 13.239 156.531 13.2074 156.646 13.1442C156.761 13.0809 156.862 12.9959 156.949 12.8892C157.036 12.7825 157.105 12.658 157.157 12.5156C157.212 12.3694 157.242 12.2152 157.246 12.0531H157.602C157.602 12.2152 157.581 12.3733 157.537 12.5275C157.497 12.6777 157.438 12.82 157.359 12.9544C157.284 13.0849 157.19 13.2015 157.08 13.3043C156.973 13.4031 156.854 13.4802 156.723 13.5355C156.893 13.6264 157.044 13.7371 157.175 13.8676C157.309 13.9941 157.432 14.1344 157.543 14.2886C157.689 14.502 157.8 14.7313 157.876 14.9764C157.951 15.2215 157.988 15.4804 157.988 15.7532V16.524H157.632V15.7532C157.632 15.4685 157.583 15.2017 157.484 14.9527C157.388 14.6997 157.254 14.4783 157.08 14.2886C156.889 14.0751 156.67 13.9111 156.42 13.7964C156.171 13.6778 155.899 13.6185 155.606 13.6185H155.262V16.524H154.905V13.6185Z" fill="#FA864B"/>
<path d="M161.192 14.2886C161.192 13.9723 161.25 13.6759 161.364 13.3991C161.479 13.1224 161.634 12.8813 161.828 12.6757C162.026 12.4662 162.255 12.3022 162.517 12.1836C162.782 12.065 163.063 12.0057 163.36 12.0057C163.634 12.0057 163.893 12.0571 164.139 12.1599C164.388 12.2627 164.632 12.4228 164.869 12.6402L164.614 12.9011C164.42 12.7232 164.22 12.5927 164.014 12.5097C163.808 12.4228 163.59 12.3793 163.36 12.3793C163.099 12.3793 162.857 12.4326 162.636 12.5394C162.414 12.6421 162.222 12.7825 162.059 12.9604C161.901 13.1343 161.776 13.3379 161.685 13.5711C161.594 13.8004 161.549 14.0395 161.549 14.2886C161.549 14.5416 161.594 14.7847 161.685 15.0179C161.78 15.2472 161.909 15.4488 162.071 15.6227C162.234 15.7966 162.424 15.937 162.642 16.0437C162.863 16.1465 163.103 16.1979 163.36 16.1979C163.527 16.1979 163.681 16.1781 163.824 16.1386C163.966 16.0951 164.095 16.0417 164.21 15.9785C164.325 15.9113 164.426 15.8362 164.513 15.7532C164.604 15.6701 164.683 15.5852 164.75 15.4982L165 15.7591C164.826 15.9963 164.594 16.1919 164.305 16.3461C164.02 16.4963 163.705 16.5714 163.36 16.5714C163.063 16.5714 162.782 16.5121 162.517 16.3935C162.255 16.275 162.026 16.1129 161.828 15.9073C161.634 15.7018 161.479 15.4606 161.364 15.1839C161.25 14.9072 161.192 14.6088 161.192 14.2886Z" fill="#FA864B"/>
</svg>
