<svg width="200" height="50" viewBox="0 0 200 50" fill="none" xmlns="http://www.w3.org/2000/svg">
<path d="M169.996 17.0545H173.359L173.342 22.4832H174.07L175.985 17.0545H179.624L177.014 24.2314L180 32.1779H176.06L174.12 26.0967H173.325L173.342 32.1779H169.979V17.0545H169.996ZM158.662 17.0545H162.008V22.5083H164.4V17.0545H167.737V32.1779H164.4V26.1135H162.008V32.1779H158.662V17.0545ZM147.01 32.203H150.489L150.908 29.5848H153.3L153.718 32.203H157.198L154.27 17.0796H149.954L147.01 32.203ZM152.112 21.6634L152.748 26.264H151.46L152.112 21.6634ZM137.675 32.1779H141.748C142.635 32.1779 146.341 31.7931 146.357 27.2092C146.357 23.3615 143.488 22.6923 141.631 22.6923H141.021V20.6848H145.554V17.0545H137.683L137.675 32.1779ZM141.012 29.1415V25.7203H141.506C141.924 25.7203 142.986 25.737 142.986 27.3012C142.986 28.8822 141.916 29.1415 141.506 29.1415H141.012ZM124.4 17.0545H127.311L129.879 20.6262L132.472 17.0545H135.358V32.1779H131.937V22.96L129.879 25.5948L127.821 22.96V32.1779H124.4V17.0545ZM117.332 32.3619C121.389 32.3619 122.752 28.4639 122.752 24.5994C122.752 20.7349 121.389 16.837 117.332 16.837C113.275 16.837 111.911 20.7266 111.911 24.5994C111.911 28.4723 113.283 32.3619 117.332 32.3619ZM117.332 28.6898C116.127 28.6898 115.508 27.2511 115.508 24.5994C115.508 21.9478 116.119 20.5007 117.332 20.5007C118.545 20.5007 119.147 21.9395 119.147 24.5994C119.147 27.2594 118.545 28.6981 117.332 28.6898ZM102.008 32.1779H105.429V27.1925H106.575C109.954 27.1925 111.008 24.0725 111.008 22.0817C111.008 20.1411 109.804 17.0545 106.575 17.0545H102.008V32.1779ZM105.429 20.3836H106.24C107.01 20.3836 107.503 20.8688 107.503 22.1235C107.503 23.7462 106.667 23.8633 106.24 23.8633H105.429V20.3836ZM90.7069 17.0545H100.042V32.1779H96.6208V20.7099H94.1281V32.1779H90.7069V17.0545ZM83.6889 22.9181C84.241 22.9181 85.2531 22.5501 85.2531 21.4376C85.2531 20.1243 84.0904 20.0407 83.7475 20.0407C83.3543 20.0407 82.6015 20.1076 81.8654 20.4673L81.8236 17.18C82.9863 16.8788 83.8228 16.7952 84.8098 16.7952C87.6203 16.7952 88.8667 18.8027 88.8667 20.7684C88.8667 22.6756 87.796 23.8299 86.7504 24.2732V24.4154C87.7625 24.7416 89.1009 25.737 89.1009 28.0457C89.1009 30.9064 87.1603 32.4874 84.6676 32.4874C83.346 32.4706 82.4677 32.2866 81.4221 31.7011L81.4806 28.5559C82.451 28.9825 83.1034 29.0244 83.7558 29.0244C84.86 29.0244 85.2949 28.1879 85.2949 27.5856C85.2949 26.7324 84.7596 26.1636 83.5969 26.1636H82.2084V22.9181H83.6889ZM70.2385 32.1779H73.7015L74.1364 29.5597H76.5287L76.947 32.1779H80.41L77.4823 17.0545H73.1745C73.1661 17.0545 70.2385 32.1779 70.2385 32.1779ZM75.3159 21.6216L75.9683 26.2389H74.6634L75.3159 21.6216ZM63.6136 17.0545H70.6316V20.827H67.0934V32.1779H63.6136V17.0545ZM20.8699 24.7918C20.8699 34.0934 28.2727 41.6718 37.3735 41.6718C46.4575 41.6718 53.8519 34.0934 53.8519 24.7918C53.8519 15.4735 46.4575 7.89508 37.3735 7.89508C28.2643 7.88672 20.8699 15.4652 20.8699 24.7918ZM20 24.7918C20 14.98 27.7875 7.00006 37.3735 7.00006C46.9343 7.00006 54.7219 14.9717 54.7219 24.7918C54.7219 34.5869 46.9343 42.5584 37.3735 42.5584C27.7875 42.5584 20 34.5869 20 24.7918Z" fill="#4C7D86"/>
<path d="M32.1871 13.5579C31.5848 13.8256 31.016 14.1602 30.4891 14.545C34.6212 12.6629 39.6651 12.78 42.3753 14.018C43.2285 14.4195 43.7973 14.6704 44.0566 15.1556C41.2461 14.386 40.0416 14.2438 37.6911 14.3024C34.3452 14.3609 29.8952 15.716 28.1971 16.7532L27.4443 17.7152C29.8952 16.2346 34.4623 15.2643 36.9968 15.1807C39.8241 15.1389 42.024 15.4065 44.0399 16.151C43.9228 16.678 43.6635 16.9373 43.2285 17.2049C35.1566 15.7662 30.3887 17.4642 26.0809 20.3417L25.763 21.2953C30.5727 17.9159 36.4615 16.9791 42.1411 17.9912C40.1085 18.7189 37.6743 18.8862 35.6334 19.363C33.8935 19.7729 32.965 19.89 30.648 20.6846C28.2975 21.4709 26.909 22.2823 26.039 23.3195C25.6208 23.8047 25.303 24.3735 25.2277 24.9841C25.1942 25.3438 25.2109 25.6784 25.328 25.9962C25.4201 26.2806 25.6459 26.565 25.8801 26.8494C25.6041 27.3346 25.3615 27.9619 25.763 28.698C25.9387 29.041 26.3987 29.3839 26.8337 29.7102L26.7082 30.0698C26.6497 30.4964 26.5911 31.0067 26.8672 31.4249C27.3356 32.1945 27.9127 32.7047 28.8245 33.1899C28.9667 33.8172 29.1758 34.3275 29.6526 34.7708C30.6647 35.7244 32.9148 37.5479 36.9299 37.8323C39.9412 38.033 42.0909 37.1046 42.9023 36.6947L43.8893 36.1677C42.208 36.8536 39.3807 37.2635 37.0637 37.0544C33.7011 36.77 30.6982 34.5199 30.3218 33.8674C30.4389 33.9511 30.5978 34.0096 30.7316 34.0682C34.6714 36.0171 39.7488 37.0711 46.2649 34.3526L46.8002 33.8256C40.878 35.7076 35.7003 35.6491 30.1377 32.6713C30.1963 32.3869 30.3218 32.1359 30.5727 31.9435C31.9947 32.5876 33.3665 33.123 35.0227 33.4575C36.9633 33.8256 39.18 33.9092 40.9951 33.8256C42.8354 33.7419 46.474 32.8135 48.1971 31.8766C48.3561 31.7344 48.4313 31.4918 48.5903 31.3329C45.2277 32.5876 41.2293 33.1731 38.8203 32.9891C36.4615 32.8051 34.3703 32.5207 31.6016 31.2242C32.1369 31.0067 32.689 30.8227 33.2411 30.6554C35.0646 31.2242 36.9215 31.5671 39.1131 31.6675C41.2879 31.7679 46.3736 30.9398 49.5773 28.9573C49.6777 28.6729 49.7781 28.3634 49.7781 28.3634C49.7781 28.3634 45.328 30.7976 40.2841 30.7976C37.9253 30.7976 36.4866 30.4546 35.4159 30.1869C37.7914 29.7436 40.7776 29.3756 44.1403 28.5056C45.8383 28.0623 47.9378 27.0418 48.8914 26.197C49.7028 25.4442 50.3385 24.4739 50.121 23.4785C50.0792 23.2108 49.7279 22.5834 49.2845 22.366C49.7028 21.8222 49.661 21.3538 49.6024 20.9523C49.5606 20.6428 49.4184 20.2999 49.2511 19.9987C48.9751 19.6307 48.7157 19.3463 48.1804 19.0201C48.2641 18.5935 48.2055 18.1585 48.0215 17.7654C47.6032 17.0376 46.8588 16.4103 45.5706 15.7411C45.5121 15.4734 45.3531 15.1305 45.0771 14.7875C43.4544 13.1481 40.8027 12.3534 38.5694 12.3116H38.2013C35.5915 12.3367 33.492 12.9389 32.1871 13.5579ZM44.8513 17.6148C45.052 17.389 45.3448 17.046 45.4201 16.7616C45.9805 17.1297 46.6078 17.6734 46.6831 18.2422C46.0976 18.0163 45.4619 17.7737 44.8513 17.6148ZM45.3448 20.0824C44.3996 19.8147 43.5631 19.4969 42.459 19.2961C43.1365 19.0284 43.5882 18.7524 43.9813 18.4262C44.868 18.6688 45.6961 18.9699 46.3736 19.2794C46.2565 19.455 45.579 20.0991 45.3699 20.0991C45.3615 20.0908 45.3531 20.0908 45.3448 20.0824ZM47.0679 20.7934C47.3272 20.5926 47.5614 20.3668 47.7789 20.1075C48.3142 20.5759 48.4732 20.8938 48.2139 21.404C47.8542 21.1363 47.4778 20.9941 47.0679 20.7934ZM26.75 25.8206C25.2862 23.7545 30.3636 22.2739 31.3339 21.9728C33.8015 21.22 36.6957 20.6596 39.3055 20.3333C41.1039 20.1075 42.0574 20.3166 43.7555 20.7767C39.3807 21.9728 35.0646 22.3576 30.9575 23.5956C27.6451 24.5742 26.7668 25.8206 26.75 25.8206ZM27.8375 26.816C29.3849 25.4776 32.5301 24.7248 33.676 24.4655C37.3314 23.6541 40.7358 23.1439 42.1411 22.7842C43.8391 22.3576 45.0269 21.9561 45.855 21.5462C45.8968 21.4877 47.2436 22.1568 47.3774 22.3158C46.9257 22.7005 46.29 23.0268 45.5957 23.2693C43.5213 24.0389 39.7404 24.8503 37.7413 25.1598C35.7254 25.5027 34.0357 25.762 31.8107 26.3726C30.5225 26.724 29.6526 27.1255 29.0169 27.5521C28.5485 27.2593 28.2724 27.1757 27.8375 26.816ZM30.7065 28.4387C31.359 28.1543 32.07 27.9285 32.7559 27.7528C36.2356 26.8745 39.3055 26.7156 43.538 25.5445C45.5706 24.9925 47.0595 24.4069 47.988 23.6792C48.1219 23.5537 48.2641 23.4534 48.4063 23.3363C49.6359 25.2852 45.0269 26.7825 41.8734 27.4768C40.2256 27.8114 38.5777 28.1292 36.9299 28.4304C34.8722 28.7733 34.203 28.9573 32.7726 29.3839C32.07 29.0828 31.359 28.7817 30.7065 28.4387ZM27.001 27.8281C27.3188 28.0372 27.5531 28.1961 27.9295 28.3969C27.7873 28.5224 27.6116 28.6395 27.4778 28.7817C27.1683 28.5977 26.8504 28.1961 27.001 27.8281ZM28.6488 29.6934C28.8496 29.5094 29.1005 29.3337 29.3766 29.1497C29.9705 29.4341 30.5811 29.6934 31.1582 29.9611C30.7735 30.1033 30.4054 30.2873 30.0541 30.5132C29.5773 30.2371 29.1089 29.9695 28.6488 29.6934ZM28.1302 30.6805C28.4648 30.9063 28.7994 31.0903 29.1423 31.266C29.0001 31.4667 28.8998 31.6257 28.8496 31.8348C28.3477 31.4166 28.1135 31.0736 28.1302 30.6805Z" fill="#4C7D86"/>
</svg>
