<svg width="200" height="50" viewBox="0 0 200 50" fill="none" xmlns="http://www.w3.org/2000/svg">
<path d="M55.5076 21.0258C56.6544 21.0258 57.931 21.0656 59.038 21.8136C59.776 22.3023 60.6436 23.2697 60.6436 24.995C60.6436 26.8899 59.4469 29.1238 56.1259 29.1238H53.3334V34.3198H50.8901V21.0258H55.5076ZM55.6073 27.1791C56.1458 27.1791 56.9237 27.199 57.542 26.6206C57.9709 26.2317 58.2003 25.5734 58.2003 25.015C58.2003 24.4964 57.9908 23.8681 57.562 23.4991C57.1331 23.1301 56.455 22.9505 55.697 22.9505H53.3334V27.1791H55.6073ZM62.8976 25.4438C63.5758 24.8055 64.5831 24.247 66.089 24.247C67.6049 24.247 68.6122 24.8055 69.2903 25.4438C70.2976 26.3912 70.8162 27.8672 70.8162 29.3732C70.8162 30.8791 70.2976 32.3551 69.2903 33.3025C68.6122 33.9408 67.6049 34.5092 66.089 34.5092C64.5831 34.5092 63.5758 33.9408 62.8976 33.3025C61.8904 32.3551 61.3718 30.8791 61.3718 29.3732C61.3618 27.8573 61.8904 26.3912 62.8976 25.4438ZM64.5432 32.1656C64.7526 32.4149 65.2413 32.8836 66.089 32.8836C66.9467 32.8836 67.4254 32.4249 67.6348 32.1656C67.7944 31.9961 68.3728 31.2182 68.3728 29.3732C68.3728 27.5282 67.7944 26.7602 67.6348 26.5807C67.4254 26.3314 66.9367 25.8627 66.089 25.8627C65.2413 25.8627 64.7526 26.3214 64.5432 26.5807C64.3936 26.7602 63.8052 27.5282 63.8052 29.3732C63.8052 31.2082 64.3936 31.9861 64.5432 32.1656ZM78.5452 28.0567C78.5053 27.5581 78.3158 26.9697 78.0565 26.6007C77.8171 26.2516 77.3584 25.8627 76.5805 25.8627C75.8225 25.8627 75.3239 26.2516 75.0147 26.7702C74.526 27.568 74.4961 28.8047 74.4961 29.3732C74.4961 30.2807 74.6258 31.3678 75.0147 31.9861C75.264 32.375 75.7727 32.8737 76.5805 32.8737C77.1589 32.8737 77.6476 32.6443 78.0166 32.1357C78.3058 31.7268 78.5053 31.1483 78.5352 30.6397L80.5896 30.8891C80.4699 31.7966 80.071 32.8138 79.353 33.4621C78.7546 34.0006 77.8171 34.4893 76.5007 34.4893C75.0347 34.4893 74.0773 33.9109 73.5188 33.3823C72.7608 32.6642 72.0428 31.3877 72.0428 29.3732C72.0428 27.4982 72.681 26.3713 73.1897 25.7729C73.9077 24.9152 75.1244 24.2271 76.5605 24.2271C77.7872 24.2271 78.7945 24.6559 79.4228 25.3142C80.061 25.9524 80.45 26.9198 80.5896 27.7875L78.5452 28.0567ZM88.1592 28.0567C88.1193 27.5581 87.9298 26.9697 87.6705 26.6007C87.4412 26.2516 86.9724 25.8627 86.1945 25.8627C85.4366 25.8627 84.9379 26.2516 84.6288 26.7702C84.1501 27.568 84.1102 28.8047 84.1102 29.3732C84.1102 30.2807 84.2498 31.3678 84.6288 31.9861C84.8781 32.375 85.3867 32.8737 86.1945 32.8737C86.773 32.8737 87.2616 32.6443 87.6306 32.1357C87.9199 31.7268 88.1193 31.1483 88.1492 30.6397L90.2037 30.8891C90.094 31.7966 89.6851 32.8138 88.967 33.4621C88.3686 34.0006 87.4412 34.4893 86.1247 34.4893C84.6487 34.4893 83.7013 33.9109 83.1428 33.3823C82.3849 32.6642 81.6668 31.3877 81.6668 29.3732C81.6668 27.4982 82.3051 26.3713 82.8137 25.7729C83.5317 24.9152 84.7485 24.2271 86.1846 24.2271C87.4013 24.2271 88.4085 24.6559 89.0468 25.3142C89.6851 25.9524 90.074 26.9198 90.2136 27.7875L88.1592 28.0567ZM100.576 31.4475C100.227 32.6044 99.5284 33.2826 98.95 33.6915C98.1721 34.21 97.1648 34.5092 96.0977 34.5092C94.7613 34.5092 93.405 33.9408 92.5872 33.113C91.8293 32.3451 91.2708 30.9987 91.2708 29.413C91.2708 27.3985 92.1085 26.0621 93.0161 25.3042C93.5446 24.8554 94.532 24.2371 96.0179 24.2371C97.9028 24.2371 99.0996 25.1047 99.7379 26.0023C100.416 26.9298 100.735 28.2263 100.735 29.3532V29.802H93.7242C93.7242 29.9117 93.7042 30.8093 94.0533 31.5273C94.5719 32.6144 95.5293 32.8836 96.1875 32.8836C96.7061 32.8836 97.3643 32.7241 97.9128 32.1656C98.2419 31.8165 98.3815 31.4874 98.4314 31.1783L100.576 31.4475ZM98.2918 28.326C98.2918 27.7675 98.1522 27.1292 97.8629 26.7004C97.4939 26.1618 96.8357 25.7928 96.1177 25.7928C95.3797 25.7928 94.7414 26.1618 94.3524 26.6206C94.0433 27.0096 93.774 27.6079 93.774 28.326H98.2918ZM110.299 24.4365V34.3198H108.046V26.112H105.492C105.433 27.4484 105.393 27.9869 105.353 28.9044C105.293 29.9316 105.223 32.0958 104.346 33.2826C103.857 33.9208 103.258 34.1702 102.83 34.2898C102.58 34.3696 102.311 34.3995 102.032 34.3995C101.842 34.3995 101.643 34.3796 101.453 34.3198V32.6144H101.643C101.932 32.5944 102.321 32.4448 102.57 32.2454C103.348 31.627 103.418 30.2308 103.498 29.1238C103.598 27.6678 103.618 26.8001 103.627 25.4837L103.647 24.4365H110.299ZM114.917 27.957H117.4C118.038 27.957 119.275 28.0368 120.093 28.8446C120.831 29.5626 120.901 30.5699 120.901 31.1085C120.901 32.5246 120.322 33.2427 119.873 33.6117C119.714 33.7314 118.986 34.3098 117.59 34.3098H112.673V24.4365H114.917V27.957ZM114.917 32.6842H116.682C117.111 32.6842 117.57 32.6642 117.959 32.3351C118.188 32.1157 118.467 31.7567 118.467 31.1284C118.467 30.5899 118.308 30.161 117.869 29.8718C117.48 29.6225 116.991 29.5826 116.692 29.5826H114.927V32.6842H114.917ZM124.172 24.4365L125.997 27.5082L127.892 24.4365H129.946L127.054 28.9044L130.485 34.3098H127.852L125.608 30.5899L123.244 34.3098H121.19L124.561 29.1837L121.539 24.4365H124.172ZM132.22 25.4438C132.898 24.8055 133.906 24.247 135.411 24.247C136.927 24.247 137.935 24.8055 138.613 25.4438C139.62 26.3912 140.139 27.8672 140.139 29.3732C140.139 30.8791 139.61 32.3551 138.613 33.3025C137.935 33.9408 136.927 34.5092 135.411 34.5092C133.906 34.5092 132.898 33.9408 132.22 33.3025C131.213 32.3551 130.694 30.8791 130.694 29.3732C130.694 27.8573 131.213 26.3912 132.22 25.4438ZM133.866 32.1656C134.075 32.4149 134.564 32.8836 135.411 32.8836C136.269 32.8836 136.748 32.4249 136.967 32.1656C137.117 31.9961 137.705 31.2182 137.705 29.3732C137.705 27.5282 137.127 26.7602 136.967 26.5807C136.758 26.3314 136.269 25.8627 135.411 25.8627C134.564 25.8627 134.075 26.3214 133.866 26.5807C133.706 26.7602 133.128 27.5282 133.128 29.3732C133.128 31.2082 133.716 31.9861 133.866 32.1656ZM141.345 27.1093C141.635 25.9125 142.392 25.2543 142.931 24.9252C143.26 24.7158 144.168 24.247 145.723 24.247C146.691 24.247 147.678 24.4166 148.416 24.8255C149.503 25.4239 149.772 26.2915 149.772 26.9198C149.772 27.598 149.443 28.8945 147.758 29.0839V29.1238C148.336 29.2036 148.975 29.4529 149.364 29.8618C149.713 30.2308 149.982 30.8492 149.982 31.5074C149.982 32.4947 149.403 33.3624 148.665 33.851C147.778 34.4295 146.551 34.5092 145.644 34.5092C144.726 34.5092 143.34 34.4095 142.363 33.6416C141.824 33.2128 141.315 32.4748 141.166 31.5473L143.2 31.1982C143.28 31.5074 143.45 31.9761 143.679 32.2454C144.188 32.8338 144.975 32.8836 145.484 32.8836C145.993 32.8836 146.531 32.8238 146.96 32.5346C147.349 32.2653 147.539 31.8963 147.539 31.4076C147.539 30.9988 147.459 30.6696 147.11 30.3804C146.661 30.0114 146.063 29.9516 145.504 29.9516H144.477V28.4357H145.504C145.893 28.4357 146.451 28.3559 146.761 28.2063C147.17 27.9969 147.399 27.6478 147.399 27.0794C147.399 26.7702 147.279 26.471 146.99 26.2416C146.541 25.8726 145.903 25.8527 145.574 25.8527C145.125 25.8527 144.467 25.9125 143.928 26.3713C143.699 26.5608 143.39 26.9298 143.29 27.5082L141.345 27.1093ZM161.481 23.3495H155.068V26.2915H157.92C158.948 26.2915 159.935 26.3713 160.942 27.0694C161.93 27.7476 162.548 28.7548 162.548 30.2109C162.548 31.5672 162.039 32.5745 161.401 33.2127C160.434 34.1801 159.327 34.3198 158.17 34.3198H151.967V21.0258H161.481V23.3495ZM155.068 31.9861H157.571C158.04 31.9861 158.469 31.9661 158.908 31.5173C159.337 31.0885 159.396 30.6098 159.396 30.2408C159.396 29.8219 159.277 29.3931 158.908 29.0241C158.469 28.5853 157.9 28.5354 157.492 28.5354H155.068V31.9861ZM164.144 27.1791C164.453 25.8427 165.32 25.1645 165.849 24.8554C166.617 24.4066 167.644 24.2371 168.931 24.2371C170.556 24.2371 172.202 24.4465 172.94 25.9823C173.329 26.7802 173.289 27.6279 173.289 28.3659V32.1855C173.289 32.9834 173.398 33.7214 173.578 34.3198H170.766C170.686 33.9308 170.626 33.4122 170.616 32.754C170.247 33.4122 169.349 34.5192 167.305 34.5192C166.397 34.5192 165.46 34.2898 164.822 33.7613C164.203 33.2526 163.814 32.4448 163.814 31.5572C163.814 30.5699 164.243 29.3831 165.929 28.685C167.016 28.2362 168.781 28.0866 169.569 28.0467L170.496 28.0069V27.7974C170.496 27.5281 170.476 26.9497 170.207 26.6306C169.838 26.2017 169.1 26.1818 168.811 26.1818C168.412 26.1818 167.923 26.2217 167.514 26.471C167.265 26.6206 166.936 26.9397 166.816 27.4783L164.144 27.1791ZM169.629 29.6424C168.661 29.7222 167.694 29.8219 167.145 30.4901C166.996 30.6796 166.836 30.9788 166.836 31.3777C166.836 31.8066 167.046 32.0958 167.265 32.2454C167.534 32.4548 167.943 32.5545 168.332 32.5545C168.911 32.5545 169.589 32.3052 169.978 31.8365C170.038 31.7766 170.496 31.1982 170.496 30.0713V29.5527L169.629 29.6424ZM178.415 24.4365V28.1365H181.536V24.4365H184.419V34.3098H181.536V30.161H178.415V34.3098H175.533V24.4365H178.415ZM189.555 24.4365V28.2362H190.333C191.17 28.2362 191.519 27.8273 191.729 27.3786C192.138 26.5109 192.118 25.8327 192.487 25.1546C192.776 24.616 193.165 24.4764 193.414 24.4365H195.798C195.489 24.7656 195.219 25.1546 195.04 25.5036C194.731 26.1419 194.442 27.1891 194.262 27.6379C194.033 28.2562 193.644 28.8745 192.656 28.9543V28.9942C193.185 29.074 193.724 29.3432 194.132 29.9416C194.382 30.3106 194.551 30.7893 194.831 31.5473C195.1 32.3252 195.219 32.5944 195.469 33.1928C195.668 33.6416 195.778 33.9109 196.107 34.3198H193.394C192.966 34.1801 192.676 33.8909 192.327 32.8836C192.058 32.1157 192.018 31.8365 191.839 31.4076L191.699 31.0586C191.41 30.3206 191.021 30.171 190.422 30.171H189.555V34.3198H186.673V24.4365H189.555Z" fill="#4C7D86"/>
<path d="M24.3223 49C12.5641 49 3 39.4459 3 27.6877C3 20.936 6.1016 14.7228 11.507 10.6539L11.7264 10.4743V1H23.9632V6.37544H24.3223C36.0704 6.37544 45.6345 15.9395 45.6345 27.6977C45.6345 39.4459 36.0704 49 24.3223 49Z" fill="#4C7D86"/>
<path d="M18.1487 28.0268L22.5867 23.6686V20.7066L18.1487 25.0449V28.0268ZM18.1487 16.9867L22.5867 12.6185V9.8261L18.1487 14.1643V16.9867ZM18.1487 20.6368L22.5867 16.2786V13.4862L18.1487 17.8244V20.6368ZM16.8822 9.85602L16.2938 9.28756V2.37628H15.6157V8.62935L15.0372 8.05091V2.37628H14.3591V7.40267L13.7707 6.82423V2.37628H13.1025V8.96843L17.5504 13.3266V2.37628H16.8822V9.85602ZM18.1487 24.2869L22.5867 19.9287V17.1363L18.1487 21.4745V24.2869ZM13.1025 23.6686L17.5504 28.0268V25.0449L13.1025 20.7066V23.6686ZM21.9185 6.82423L21.3301 7.40267V2.37628H20.6619V8.06089L20.0735 8.62935V2.37628H19.4053V9.27759L18.8169 9.85602V2.37628H18.1487V13.3266L22.5867 8.96843V2.37628H21.9185V6.82423ZM13.1025 12.6185L17.5504 16.9867V14.1643L13.1025 9.8261V12.6185ZM13.1025 16.2786L17.5504 20.6368V17.8244L13.1025 13.4862V16.2786ZM13.1025 19.9287L17.5504 24.2869V21.4745L13.1025 17.1363V19.9287ZM39.5608 22.2325H28.7601C28.9895 21.8735 29.1191 21.4546 29.1191 21.0058C29.1191 19.7193 28.0719 18.6821 26.7854 18.6821C25.4989 18.6821 24.4617 19.7293 24.4617 21.0058C24.4617 21.5145 24.6213 21.9732 24.9005 22.3522C24.7011 22.4818 24.5614 22.7112 24.5614 22.9805C24.5614 23.2398 24.7011 23.4692 24.9005 23.5988C24.6313 23.9778 24.4617 24.4465 24.4617 24.9452C24.4617 26.2317 25.4989 27.2689 26.7854 27.2689C28.0719 27.2689 29.1191 26.2317 29.1191 24.9452C29.1191 24.4964 28.9895 24.0675 28.7601 23.7185H36.7983V24.2072H36.0005V24.8953H36.7983V25.6034H36.0005V26.9098H36.7983V26.3214H37.9751V26.9098H38.763V25.6034H37.9751V24.8953H38.763V24.2072H37.9751V23.7185H39.5608C39.87 23.7185 40.1193 23.4592 40.1193 23.15V22.801C40.1193 22.4918 39.86 22.2325 39.5608 22.2325ZM27.9922 24.9452C27.9922 25.6034 27.4536 26.1419 26.7854 26.1419C26.1272 26.1419 25.5887 25.6034 25.5887 24.9452C25.5887 24.7058 25.6585 24.4764 25.7881 24.2869L26.1172 23.7185C25.9078 23.539 25.7781 23.2697 25.7781 22.9705C25.7781 22.6713 25.9078 22.4021 26.1172 22.2225L25.7881 21.6541C25.6585 21.4646 25.5887 21.2452 25.5887 20.9959C25.5887 20.3376 26.1272 19.7991 26.7854 19.7991C27.4436 19.7991 27.9922 20.3376 27.9922 20.9959C27.9922 21.4845 27.4237 22.6514 27.4237 22.6514V23.2797C27.4237 23.2897 27.9922 24.4565 27.9922 24.9452Z" fill="#1F5C68"/>
<path d="M9.06348 20.8163V23.7185C9.06348 26.491 10.2702 28.2761 10.9683 28.9643C11.3772 29.3632 15.506 33.4322 15.5659 33.482C16.8524 34.7386 17.0718 35.1475 17.361 35.8656V32.6543C17.361 29.792 15.9149 28.685 15.1669 27.957C13.4217 26.2616 12.2648 25.1446 11.3174 24.2071C9.54218 22.422 9.06348 20.8163 9.06348 20.8163ZM15.167 35.1276C13.4317 33.4222 12.2648 32.3152 11.3274 31.3777C9.54222 29.5926 9.07349 28.3858 9.07349 28.3858V30.889C9.07349 33.6615 10.3301 35.4268 10.9684 36.1548C11.3772 36.5537 15.516 40.6027 15.5659 40.6526C16.8524 41.9092 17.0718 42.5076 17.361 43.2157V39.8248C17.361 36.9626 15.905 35.8556 15.167 35.1276Z" fill="#1F5C68"/>
<path d="M24.322 7.74176C24.0029 7.74176 23.6837 7.75173 23.3646 7.76171V9.11803C23.6837 9.09809 23.9929 9.09809 24.322 9.09809C34.5842 9.09809 42.9017 17.4155 42.9017 27.6877C42.9017 37.9499 34.5842 46.2674 24.322 46.2674C14.0598 46.2674 5.73231 37.9499 5.73231 27.6877C5.73231 21.9931 8.29537 16.8969 12.3345 13.4862V11.7509C7.49753 15.391 4.37598 21.1753 4.37598 27.6877C4.37598 38.6979 13.3018 47.6237 24.322 47.6237C35.3322 47.6237 44.258 38.6979 44.258 27.6877C44.258 16.6775 35.3322 7.74176 24.322 7.74176Z" fill="#1F5C68"/>
<path d="M38.4243 38.0995C38.7334 37.6806 39.0227 37.2418 39.3019 36.793V34.1203H38.4243V38.0995ZM40.9774 33.1429C41.107 32.754 41.2167 32.3651 41.3164 31.9761H38.4243V32.6842H38.8631C39.631 32.6642 40.4987 32.6543 40.9774 33.1429Z" fill="#1F5C68"/>
<path d="M21.7195 31.8764H20.9316V39.8248H21.7195V31.8764Z" fill="#1F5C68"/>
<path d="M19.1263 30.3505H21.7192C22.3874 30.3505 22.8562 30.4901 23.1254 30.7494C23.3947 31.0087 23.5244 31.4775 23.5244 32.1457V39.5755C23.5244 40.2437 23.3947 40.7125 23.1254 40.9718C22.7165 41.3806 21.9586 41.3806 21.3303 41.3806C21.1907 41.3707 21.0511 41.3707 20.9314 41.3707V44.8911C21.1907 44.941 21.45 44.9909 21.7192 45.0308V42.1386C22.916 42.1386 23.6939 41.7297 24.0629 40.9119V45.2202H24.3222C24.4818 45.2202 24.6513 45.2202 24.8109 45.2103V32.2753C24.8109 31.5872 24.9505 31.1085 25.2098 30.8392C25.4691 30.5699 25.9378 30.4303 26.596 30.4303C27.2642 30.4303 28.2516 30.3306 28.7602 30.8392C29.0195 31.1085 29.1391 31.5971 29.1391 32.2753V36.085H27.364V32.016H26.596V45.0707C26.8553 45.0407 27.1047 45.0008 27.364 44.951V36.8529H29.1391V44.5421C29.5081 44.4424 29.8672 44.3227 30.2262 44.193V37.1521C30.2262 36.3543 30.4157 35.7559 31.2235 35.4866L30.3259 30.5899H32.1211L32.4203 35.9354H32.6397L32.9389 30.5899H34.8337L33.8165 35.4866C34.6642 35.7858 34.8337 36.3044 34.8337 37.1521V41.6998C35.3623 41.3009 35.8609 40.882 36.3396 40.4232V30.54H41.6054C41.6453 30.3007 41.6752 30.0713 41.7051 29.822H29.3984L29.568 30.7095C29.179 29.9915 28.441 29.6325 27.354 29.6325H26.5861C25.2796 29.6325 24.4917 30.1511 24.1826 31.1883C23.9033 30.1012 23.0756 29.5627 21.7093 29.5627H18.3384V44.1531C18.5977 44.2429 18.857 44.3326 19.1163 44.4124V30.3505H19.1263ZM35.472 35.9653L34.6243 35.1575L35.472 30.7694V35.9653Z" fill="#1F5C68"/>
<path d="M32.1309 43.3852C32.4002 43.2456 32.6694 43.106 32.9387 42.9564V36.9427H32.1309V43.3852Z" fill="#1F5C68"/>
</svg>
