<svg xmlns="http://www.w3.org/2000/svg" width="24" height="24" viewBox="0 0 24 24" fill="none">
<circle cx="12" cy="12" r="11.5" stroke="#9FB7BC"/>
<path fill-rule="evenodd" clip-rule="evenodd" d="M14.4057 13.0421C14.2747 12.9769 13.6325 12.6628 13.5129 12.6191C13.3933 12.5758 13.3063 12.5543 13.2188 12.6847C13.1318 12.8142 12.8816 13.1073 12.8056 13.1939C12.7291 13.281 12.653 13.2915 12.5225 13.2268C12.3919 13.1611 11.9708 13.0242 11.4718 12.5814C11.0836 12.2367 10.8212 11.811 10.7451 11.6806C10.6691 11.5507 10.7368 11.4803 10.8023 11.4155C10.8612 11.3573 10.9328 11.2637 10.9983 11.188C11.0638 11.1119 11.0854 11.0576 11.1289 10.9706C11.1729 10.8839 11.1509 10.8083 11.1179 10.7431C11.0854 10.6779 10.8243 10.0378 10.7152 9.77751C10.6093 9.5242 10.5016 9.55876 10.4216 9.55439C10.3451 9.55089 10.2581 9.55001 10.171 9.55001C10.084 9.55001 9.94241 9.58239 9.82284 9.71276C9.70283 9.8427 9.36565 10.1573 9.36565 10.7973C9.36565 11.4369 9.83339 12.0551 9.89889 12.1422C9.96439 12.2288 10.8199 13.5422 12.1303 14.1053C12.4425 14.2391 12.6856 14.3192 12.875 14.3787C13.188 14.478 13.4729 14.464 13.698 14.4303C13.9485 14.3931 14.4708 14.1158 14.5798 13.8121C14.6884 13.5085 14.6884 13.2482 14.6559 13.1939C14.6233 13.1397 14.5367 13.1073 14.4057 13.0421ZM12.0222 16.2809H12.0204C11.2421 16.2811 10.478 16.0728 9.80833 15.6781L9.65008 15.5844L8.00507 16.0141L8.44424 14.4181L8.34093 14.2544C7.90578 13.5651 7.6755 12.7673 7.67669 11.9532C7.67757 9.56883 9.62678 7.62895 12.0239 7.62895C13.1845 7.62895 14.2756 8.07958 15.0959 8.89683C15.5005 9.29783 15.8212 9.7747 16.0394 10.2998C16.2576 10.825 16.3691 11.388 16.3672 11.9563C16.3664 14.3406 14.4172 16.2809 12.0222 16.2809ZM15.7201 8.27602C15.2358 7.7908 14.6595 7.40606 14.0246 7.14412C13.3898 6.88217 12.709 6.74822 12.0217 6.75002C9.14057 6.75002 6.79484 9.08408 6.79396 11.9528C6.79263 12.8657 7.03327 13.7629 7.49161 14.5537L6.75 17.25L9.52127 16.5264C10.2879 16.9421 11.147 17.1599 12.02 17.1599H12.0222C14.9034 17.1599 17.2491 14.8258 17.25 11.9567C17.2521 11.273 17.118 10.5957 16.8554 9.9639C16.5928 9.33212 16.207 8.75843 15.7201 8.27602Z" fill="#9FB7BC"/>
</svg>
