<svg xmlns="http://www.w3.org/2000/svg" width="24" height="24" viewBox="0 0 24 24" fill="none">
  <circle cx="12" cy="12" r="11.5" stroke="#9FB7BC"/>
  <path fill-rule="evenodd" clip-rule="evenodd" d="M16.5988 13.7316C16.5988 13.7316 17.6297 14.6744 17.8847 15.1107C17.8896 15.117 17.8935 15.1239 17.8962 15.1313C18.0001 15.2925 18.0256 15.4188 17.9746 15.5121C17.8885 15.6662 17.5972 15.7435 17.4984 15.75H15.6764C15.5495 15.75 15.2856 15.7193 14.9643 15.5139C14.7189 15.3551 14.4747 15.0935 14.2382 14.8379C13.885 14.4583 13.5796 14.1289 13.2705 14.1289C13.2314 14.1288 13.1926 14.1348 13.1557 14.1466C12.9217 14.2151 12.6247 14.5239 12.6247 15.3462C12.6247 15.6036 12.4054 15.75 12.2517 15.75H11.4172C11.1329 15.75 9.65264 15.6579 8.34002 14.3763C6.73161 12.8071 5.28703 9.65942 5.27301 9.63167C5.18312 9.428 5.37182 9.31702 5.57582 9.31702H7.41565C7.66236 9.31702 7.74268 9.45516 7.79878 9.57913C7.86381 9.7214 8.10479 10.2905 8.50004 10.9298C9.14009 11.97 9.53342 12.3933 9.84771 12.3933C9.90676 12.3935 9.96481 12.3792 10.016 12.352C10.4266 12.143 10.3501 10.7852 10.3309 10.5054C10.3309 10.4511 10.3303 9.89909 10.1199 9.63226C9.96947 9.44099 9.7132 9.3666 9.55829 9.33945C9.59972 9.28396 9.6877 9.19895 9.80054 9.14877C10.0817 9.01889 10.5898 9 11.094 9H11.3739C11.9209 9.00708 12.0624 9.03955 12.2613 9.08619C12.6616 9.17474 12.6693 9.41501 12.6342 10.2332C12.624 10.467 12.6132 10.7303 12.6132 11.0402C12.6132 11.1063 12.61 11.1801 12.61 11.2551C12.5979 11.6749 12.582 12.1477 12.902 12.3419C12.9435 12.3659 12.9914 12.3786 13.0403 12.3785C13.1512 12.3785 13.4834 12.3785 14.3842 10.947C14.7794 10.3147 15.0854 9.56909 15.1065 9.51301C15.1243 9.48172 15.1779 9.39376 15.2429 9.35834C15.2891 9.33555 15.3409 9.32416 15.3933 9.32528H17.5576C17.7935 9.32528 17.9535 9.35834 17.9848 9.44099C18.037 9.575 17.9746 9.9841 16.9864 11.2215C16.8201 11.4275 16.6741 11.6058 16.5459 11.7616C15.6502 12.8502 15.6502 12.9051 16.5988 13.7316Z" fill="#9FB7BC"/>
</svg>
