<svg width="445" height="248" viewBox="0 0 445 248" fill="none" xmlns="http://www.w3.org/2000/svg">
<rect width="445" height="248" fill="#102B31"/>
<path d="M92.4054 117.392H90.3745L90.4084 100.565H76.9708L76.937 117.392H74.8722L74.9061 100.565H72.1644V98.4062H74.9399V91.6205H76.9708V98.4062H90.4084L90.4422 91.6205H92.4392L92.4054 117.392Z" fill="#1F5C68"/>
<path d="M128.5 104.472C128.5 102.873 128.206 101.399 127.619 100.051C127.055 98.6804 126.288 97.5152 125.318 96.5556C124.37 95.5731 123.276 94.8077 122.035 94.2594C120.794 93.711 119.496 93.4369 118.142 93.4369C116.608 93.4369 115.197 93.7567 113.911 94.3965C112.647 95.0133 111.564 95.8359 110.662 96.864C109.759 97.8921 109.048 99.0688 108.529 100.394C108.033 101.719 107.785 103.079 107.785 104.472C107.785 105.934 108.044 107.328 108.563 108.653C109.082 109.978 109.793 111.155 110.696 112.183C111.621 113.189 112.715 113.988 113.979 114.582C115.242 115.176 116.63 115.473 118.142 115.473C119.564 115.473 120.906 115.188 122.17 114.617C123.434 114.022 124.528 113.234 125.453 112.252C126.378 111.247 127.112 110.081 127.653 108.756C128.217 107.408 128.5 105.98 128.5 104.472ZM130.53 104.472C130.53 106.186 130.226 107.842 129.617 109.442C129.007 111.018 128.15 112.423 127.044 113.657C125.961 114.868 124.652 115.839 123.118 116.57C121.606 117.301 119.947 117.667 118.142 117.667C116.45 117.667 114.848 117.324 113.336 116.639C111.846 115.93 110.538 114.982 109.409 113.794C108.281 112.606 107.39 111.212 106.735 109.613C106.081 108.014 105.754 106.3 105.754 104.472C105.754 102.667 106.081 100.965 106.735 99.3658C107.39 97.7436 108.27 96.3385 109.376 95.1504C110.504 93.9624 111.813 93.0256 113.302 92.3402C114.814 91.6319 116.427 91.2778 118.142 91.2778C119.789 91.2778 121.358 91.6091 122.847 92.2716C124.359 92.9342 125.679 93.8595 126.807 95.0476C127.958 96.2357 128.861 97.6408 129.515 99.263C130.192 100.862 130.53 102.599 130.53 104.472Z" fill="#1F5C68"/>
<path d="M166.636 104.472C166.817 104.998 166.963 105.546 167.076 106.117C167.189 106.688 167.245 107.282 167.245 107.899C167.245 109.087 167.031 110.253 166.602 111.395C166.174 112.515 165.564 113.52 164.775 114.411C164.007 115.302 163.071 116.022 161.965 116.57C160.882 117.118 159.664 117.392 158.31 117.392H146.294V100.565H143.62V98.4062H146.294V91.5519H158.31C158.874 91.5519 159.415 91.6776 159.934 91.9289C160.453 92.1574 160.905 92.4773 161.288 92.8885C161.672 93.2998 161.976 93.7796 162.202 94.3279C162.428 94.8763 162.541 95.4589 162.541 96.0758C162.541 97.2181 162.191 98.2006 161.491 99.0231C162.665 99.5029 163.691 100.223 164.571 101.182C165.474 102.119 166.162 103.216 166.636 104.472ZM160.51 96.0758C160.51 95.3446 160.273 94.7734 159.799 94.3622C159.348 93.9281 158.851 93.711 158.31 93.711H148.325V98.4062H158.479C159.043 98.4062 159.517 98.1777 159.9 97.7208C160.307 97.241 160.51 96.6926 160.51 96.0758ZM164.368 104.472C163.782 103.307 162.924 102.37 161.796 101.662C160.668 100.931 159.359 100.565 157.87 100.565H148.325V115.199H158.31C159.257 115.199 160.149 115.016 160.984 114.651C161.819 114.262 162.541 113.737 163.15 113.074C163.782 112.412 164.278 111.635 164.639 110.744C165 109.853 165.181 108.905 165.181 107.899C165.181 106.688 164.91 105.546 164.368 104.472Z" fill="#1F5C68"/>
<path d="M200.342 104.472C199.755 103.376 198.943 102.496 197.905 101.833C196.89 101.171 195.739 100.839 194.453 100.839H184.705V115.096H194.453C195.22 115.096 195.998 114.948 196.788 114.651C197.601 114.331 198.323 113.874 198.954 113.28C199.609 112.663 200.139 111.909 200.545 111.018C200.974 110.104 201.188 109.065 201.188 107.899C201.188 107.237 201.109 106.631 200.951 106.083C200.816 105.535 200.613 104.998 200.342 104.472ZM182.674 91.5862H184.671L184.705 98.6461H194.453C195.446 98.6461 196.371 98.806 197.228 99.1259C198.086 99.4229 198.864 99.8456 199.564 100.394C200.263 100.919 200.861 101.536 201.358 102.245C201.877 102.93 202.283 103.673 202.576 104.472C202.802 105.066 202.971 105.637 203.084 106.186C203.197 106.734 203.253 107.305 203.253 107.899C203.253 109.339 202.994 110.641 202.475 111.806C201.956 112.972 201.267 113.954 200.41 114.754C199.575 115.553 198.627 116.17 197.567 116.604C196.529 117.038 195.491 117.255 194.453 117.255H182.674V100.839H179.864V98.6804H182.674V91.5862ZM207.281 117.255H205.216V91.4834H207.281V117.255Z" fill="#1F5C68"/>
<path d="M237.543 91.6205H239.574V117.255H237.543V95.1847L222.752 117.255H220.687V91.6205H222.752V113.691L237.543 91.6205ZM235.445 86C235.445 86.7083 235.309 87.3594 235.039 87.9535C234.79 88.5475 234.429 89.0616 233.955 89.4957C233.504 89.9298 232.974 90.2725 232.365 90.5238C231.755 90.7523 231.112 90.8665 230.435 90.8665C229.758 90.8665 229.115 90.7409 228.506 90.4895C227.919 90.2382 227.389 89.8955 226.915 89.4614C226.464 89.0045 226.103 88.479 225.832 87.8849C225.584 87.2909 225.46 86.6626 225.46 86H227.592C227.637 86.7083 227.806 87.2909 228.1 87.7478C228.416 88.2048 228.777 88.5475 229.183 88.776C229.612 89.0044 230.063 89.1187 230.537 89.1187C231.011 89.0958 231.451 88.9702 231.857 88.7417C232.286 88.5132 232.635 88.1705 232.906 87.7136C233.177 87.2566 233.324 86.6854 233.346 86H235.445Z" fill="#1F5C68"/>
<path d="M82.7507 157.323H76.8504C75.4714 157.323 74.2394 157.064 73.1543 156.547C72.0918 156.007 71.1762 155.31 70.4076 154.455C69.639 153.601 69.0512 152.634 68.6443 151.554C68.2374 150.475 68.0226 149.384 68 148.282C68 146.865 68.2487 145.583 68.746 144.436C69.2434 143.267 69.8989 142.277 70.7128 141.468C71.5492 140.636 72.4987 140.006 73.5612 139.579C74.6237 139.129 75.7201 138.904 76.8504 138.904H82.7507V100.565H84.7853V138.904H90.5839C91.7142 138.904 92.8106 139.129 93.8731 139.579C94.9357 140.006 95.8738 140.636 96.6877 141.468C97.5241 142.277 98.191 143.267 98.6883 144.436C99.1857 145.583 99.4343 146.865 99.4343 148.282C99.4117 149.384 99.197 150.475 98.7901 151.554C98.3831 152.634 97.7954 153.601 97.0268 154.455C96.2581 155.31 95.3313 156.007 94.2462 156.547C93.1837 157.064 91.9629 157.323 90.5839 157.323H84.7853V161H82.7507V157.323ZM84.7853 155.198H90.5839C91.5108 155.198 92.3811 155.018 93.195 154.658C94.0314 154.276 94.7548 153.77 95.3652 153.14C95.9756 152.51 96.4616 151.779 96.8233 150.947C97.185 150.115 97.3659 149.227 97.3659 148.282C97.3659 147.203 97.185 146.224 96.8233 145.347C96.4616 144.448 95.9756 143.683 95.3652 143.053C94.7548 142.401 94.0314 141.906 93.195 141.569C92.3811 141.209 91.5108 141.029 90.5839 141.029H84.7853V155.198ZM82.7507 141.029H76.8504C75.9236 141.029 75.0419 141.209 74.2055 141.569C73.3917 141.906 72.6795 142.401 72.0692 143.053C71.4588 143.683 70.9728 144.448 70.6111 145.347C70.2493 146.224 70.0685 147.203 70.0685 148.282C70.0685 149.227 70.2493 150.115 70.6111 150.947C70.9728 151.779 71.4588 152.51 72.0692 153.14C72.6795 153.77 73.3917 154.276 74.2055 154.658C75.0419 155.018 75.9236 155.198 76.8504 155.198H82.7507V141.029Z" fill="#1F5C68"/>
<path d="M130.115 142.041C129.934 141.367 129.618 140.748 129.166 140.186C128.736 139.624 128.227 139.14 127.64 138.735C127.052 138.33 126.419 138.016 125.741 137.791C125.085 137.543 124.418 137.42 123.74 137.42C123.062 137.42 122.384 137.532 121.705 137.757C121.05 137.982 120.439 138.308 119.874 138.735C119.309 139.14 118.8 139.624 118.348 140.186C117.919 140.748 117.602 141.367 117.399 142.041H130.115ZM132.556 161H130.522V144.166H116.992V161H114.957V144.166H111.532V142.041H115.263C115.534 141.052 115.941 140.152 116.483 139.342C117.026 138.51 117.67 137.802 118.416 137.217C119.162 136.61 119.987 136.138 120.892 135.8C121.796 135.463 122.745 135.294 123.74 135.294C124.938 135.294 126.068 135.542 127.131 136.036C128.216 136.509 129.154 137.161 129.945 137.993C130.759 138.825 131.392 139.803 131.844 140.928C132.319 142.052 132.556 143.244 132.556 144.504V161Z" fill="#1F5C68"/>
<path d="M170.289 161H168.254V137.757C166.288 137.914 164.423 138.612 162.659 139.848C160.919 141.063 159.404 143.02 158.115 145.718C157.55 144.414 156.861 143.278 156.047 142.311C155.256 141.322 154.408 140.501 153.504 139.848C152.622 139.196 151.707 138.69 150.757 138.33C149.83 137.971 148.926 137.768 148.044 137.723V161H146.01V135.564C147.276 135.564 148.474 135.665 149.604 135.868C150.734 136.07 151.797 136.408 152.792 136.88C153.786 137.33 154.724 137.937 155.606 138.701C156.51 139.444 157.347 140.354 158.115 141.434C159.54 139.387 161.258 137.903 163.27 136.981C165.282 136.036 167.621 135.564 170.289 135.564V161Z" fill="#1F5C68"/>
<path d="M200.536 135.632H202.57V160.865H200.536V139.14L185.717 160.865H183.648V135.632H185.717V157.357L200.536 135.632Z" fill="#1F5C68"/>
<path d="M233.39 160.865V137.689H223.624C222.72 138.477 221.872 139.612 221.081 141.097C220.312 142.581 219.645 144.335 219.08 146.359C218.515 148.361 218.063 150.599 217.724 153.072C217.407 155.524 217.26 158.121 217.283 160.865H215.113C215.068 158.526 215.169 156.21 215.418 153.916C215.689 151.599 216.073 149.429 216.571 147.405C217.091 145.358 217.712 143.503 218.436 141.839C219.182 140.152 220.007 138.769 220.911 137.689H217.317V135.564L235.425 135.53V160.865H233.39Z" fill="#1F5C68"/>
<path d="M268.739 148.282C268.151 147.203 267.337 146.337 266.297 145.685C265.28 145.032 264.127 144.706 262.839 144.706H253.073V158.74H262.839C263.607 158.74 264.387 158.594 265.178 158.301C265.992 157.986 266.716 157.537 267.349 156.952C268.004 156.345 268.535 155.602 268.942 154.725C269.372 153.826 269.587 152.803 269.587 151.656C269.587 151.003 269.508 150.407 269.349 149.868C269.214 149.328 269.01 148.799 268.739 148.282ZM251.038 135.598H253.039L253.073 142.547H262.839C263.833 142.547 264.76 142.705 265.619 143.02C266.478 143.312 267.258 143.728 267.959 144.268C268.66 144.785 269.259 145.392 269.756 146.089C270.276 146.764 270.683 147.495 270.977 148.282C271.203 148.867 271.373 149.429 271.486 149.969C271.599 150.509 271.655 151.071 271.655 151.656C271.655 153.072 271.395 154.354 270.875 155.501C270.355 156.648 269.666 157.615 268.807 158.402C267.97 159.19 267.021 159.797 265.958 160.224C264.918 160.651 263.878 160.865 262.839 160.865H251.038V144.706H248.223V142.581H251.038V135.598Z" fill="#1F5C68"/>
<path d="M304.215 161H302.18L302.214 144.436H288.752L288.718 161H286.65L286.683 144.436H283.937V142.311H286.717V135.632H288.752V142.311H302.214L302.248 135.632H304.249L304.215 161Z" fill="#1F5C68"/>
<path d="M337.696 148.282C337.108 147.203 336.295 146.337 335.255 145.685C334.237 145.032 333.085 144.706 331.796 144.706H322.03V158.74H331.796C332.565 158.74 333.344 158.594 334.136 158.301C334.95 157.986 335.673 157.537 336.306 156.952C336.962 156.345 337.493 155.602 337.9 154.725C338.329 153.826 338.544 152.803 338.544 151.656C338.544 151.003 338.465 150.407 338.307 149.868C338.171 149.328 337.967 148.799 337.696 148.282ZM319.995 135.598H321.996L322.03 142.547H331.796C332.791 142.547 333.717 142.705 334.577 143.02C335.436 143.312 336.215 143.728 336.916 144.268C337.617 144.785 338.216 145.392 338.714 146.089C339.233 146.764 339.64 147.495 339.934 148.282C340.16 148.867 340.33 149.429 340.443 149.969C340.556 150.509 340.612 151.071 340.612 151.656C340.612 153.072 340.352 154.354 339.833 155.501C339.313 156.648 338.623 157.615 337.764 158.402C336.928 159.19 335.978 159.797 334.916 160.224C333.876 160.651 332.836 160.865 331.796 160.865H319.995V144.706H317.181V142.581H319.995V135.598ZM344.648 160.865H342.579V135.497H344.648V160.865Z" fill="#1F5C68"/>
<path d="M374.965 135.632H377V160.865H374.965V139.14L360.147 160.865H358.078V135.632H360.147V157.357L374.965 135.632ZM372.863 130.099C372.863 130.796 372.727 131.437 372.456 132.022C372.207 132.607 371.846 133.113 371.371 133.54C370.919 133.967 370.388 134.305 369.777 134.552C369.167 134.777 368.523 134.889 367.844 134.889C367.166 134.889 366.522 134.766 365.912 134.518C365.324 134.271 364.792 133.934 364.318 133.506C363.866 133.057 363.504 132.539 363.233 131.955C362.984 131.37 362.86 130.751 362.86 130.099H364.996C365.041 130.796 365.211 131.37 365.505 131.82C365.821 132.269 366.183 132.607 366.59 132.832C367.019 133.057 367.471 133.169 367.946 133.169C368.421 133.147 368.862 133.023 369.269 132.798C369.698 132.573 370.048 132.236 370.32 131.786C370.591 131.336 370.738 130.774 370.761 130.099H372.863Z" fill="#1F5C68"/>
<path d="M283.968 101.497V95.9933H283.323C282.804 95.9933 282.314 96.1045 281.854 96.3268C281.394 96.5418 280.99 96.8345 280.642 97.2051C280.3 97.5757 280.03 98.013 279.829 98.517C279.629 99.0136 279.529 99.5399 279.529 100.096V101.497H278.862V100.096C278.862 99.6584 278.917 99.236 279.028 98.8283C279.14 98.4133 279.295 98.0241 279.496 97.6609C279.703 97.2978 279.952 96.9716 280.241 96.6826C280.538 96.3861 280.868 96.1378 281.231 95.9377C280.986 95.8339 280.76 95.6894 280.553 95.5041C280.352 95.3114 280.178 95.0927 280.03 94.8481C279.889 94.5961 279.777 94.3293 279.696 94.0477C279.622 93.7586 279.585 93.4621 279.585 93.1582H280.252C280.26 93.4621 280.311 93.7512 280.408 94.0254C280.512 94.2922 280.645 94.5257 280.808 94.7258C280.972 94.926 281.161 95.0853 281.376 95.2039C281.591 95.3225 281.821 95.3818 282.066 95.3818H283.968V93.1582H284.635V95.3818H286.538C286.783 95.3818 287.012 95.3225 287.228 95.2039C287.443 95.0853 287.632 94.926 287.795 94.7258C287.958 94.5257 288.088 94.2922 288.184 94.0254C288.288 93.7512 288.344 93.4621 288.351 93.1582H289.019C289.019 93.4621 288.978 93.7586 288.896 94.0477C288.822 94.3293 288.711 94.5961 288.563 94.8481C288.422 95.0927 288.247 95.3114 288.04 95.5041C287.839 95.6894 287.617 95.8339 287.372 95.9377C287.736 96.1378 288.062 96.3861 288.351 96.6826C288.648 96.9716 288.896 97.2978 289.097 97.6609C289.304 98.0241 289.464 98.4133 289.575 98.8283C289.686 99.236 289.742 99.6584 289.742 100.096V101.497H289.074V100.096C289.074 99.5399 288.974 99.0136 288.774 98.517C288.574 98.013 288.299 97.5757 287.951 97.2051C287.61 96.8345 287.209 96.5418 286.749 96.3268C286.289 96.1045 285.8 95.9933 285.281 95.9933H284.635V101.497H283.968Z" fill="#1F5C68"/>
<path d="M301.403 93.1805H302.07V101.497H301.403V94.3367L296.541 101.497H295.862V93.1805H296.541V100.34L301.403 93.1805Z" fill="#1F5C68"/>
<path d="M313.962 101.497V93.8587H310.758C310.461 94.1181 310.183 94.4924 309.923 94.9816C309.671 95.4707 309.452 96.0489 309.267 96.7159C309.081 97.3756 308.933 98.1131 308.822 98.9284C308.718 99.7363 308.67 100.592 308.677 101.497H307.965C307.95 100.726 307.984 99.9623 308.065 99.2063C308.154 98.4429 308.28 97.7277 308.444 97.0606C308.614 96.3861 308.818 95.7746 309.055 95.2261C309.3 94.6703 309.571 94.2144 309.868 93.8587H308.688V93.1582L314.629 93.1471V101.497H313.962Z" fill="#1F5C68"/>
<path d="M328.218 97.3496C328.218 96.8308 328.121 96.3528 327.928 95.9155C327.743 95.4707 327.491 95.0927 327.172 94.7814C326.861 94.4627 326.501 94.2144 326.093 94.0365C325.685 93.8587 325.258 93.7697 324.813 93.7697C324.309 93.7697 323.846 93.8735 323.423 94.081C323.008 94.2811 322.651 94.548 322.355 94.8815C322.058 95.215 321.825 95.5967 321.654 96.0266C321.491 96.4565 321.409 96.8975 321.409 97.3496C321.409 97.824 321.494 98.2761 321.665 98.706C321.836 99.1359 322.069 99.5176 322.366 99.8512C322.67 100.177 323.03 100.437 323.445 100.629C323.86 100.822 324.317 100.918 324.813 100.918C325.281 100.918 325.722 100.826 326.137 100.641C326.553 100.448 326.912 100.192 327.216 99.8734C327.521 99.5473 327.762 99.1693 327.94 98.7394C328.125 98.3021 328.218 97.8388 328.218 97.3496ZM328.885 97.3496C328.885 97.9055 328.785 98.4429 328.585 98.9617C328.385 99.4732 328.103 99.929 327.739 100.329C327.383 100.722 326.953 101.037 326.449 101.274C325.952 101.511 325.407 101.63 324.813 101.63C324.257 101.63 323.731 101.519 323.234 101.296C322.744 101.067 322.314 100.759 321.943 100.374C321.572 99.9883 321.279 99.5362 321.064 99.0173C320.849 98.4985 320.742 97.9426 320.742 97.3496C320.742 96.7641 320.849 96.2119 321.064 95.6931C321.279 95.1669 321.569 94.711 321.932 94.3256C322.303 93.9402 322.733 93.6363 323.223 93.4139C323.719 93.1842 324.25 93.0693 324.813 93.0693C325.355 93.0693 325.87 93.1768 326.36 93.3917C326.857 93.6066 327.291 93.9068 327.661 94.2922C328.04 94.6777 328.336 95.1335 328.551 95.6597C328.774 96.1786 328.885 96.7419 328.885 97.3496Z" fill="#1F5C68"/>
<path d="M340.586 93.1805H341.253V101.497H340.586V94.3367L335.724 101.497H335.045V93.1805H335.724V100.34L340.586 93.1805ZM339.896 91.3571C339.896 91.5869 339.851 91.7982 339.762 91.9909C339.681 92.1836 339.562 92.3503 339.406 92.4912C339.258 92.632 339.084 92.7432 338.884 92.8247C338.683 92.8988 338.472 92.9359 338.249 92.9359C338.027 92.9359 337.815 92.8951 337.615 92.8136C337.422 92.732 337.248 92.6209 337.092 92.48C336.944 92.3318 336.825 92.1613 336.736 91.9686C336.655 91.7759 336.614 91.5721 336.614 91.3571H337.315C337.33 91.5869 337.385 91.7759 337.482 91.9242C337.586 92.0724 337.704 92.1836 337.838 92.2577C337.979 92.3318 338.127 92.3689 338.283 92.3689C338.438 92.3615 338.583 92.3207 338.717 92.2466C338.858 92.1725 338.973 92.0613 339.062 91.913C339.151 91.7648 339.199 91.5795 339.206 91.3571H339.896Z" fill="#1F5C68"/>
<path d="M279.74 111.535H278.828V110.834H279.74V108.6H280.408V110.823H282.31C282.555 110.823 282.785 110.764 283 110.645C283.215 110.527 283.404 110.367 283.567 110.167C283.731 109.967 283.86 109.734 283.957 109.467C284.061 109.193 284.116 108.904 284.124 108.6H284.791C284.791 108.904 284.75 109.2 284.669 109.489C284.595 109.771 284.483 110.038 284.335 110.29C284.194 110.534 284.02 110.753 283.812 110.946C283.612 111.131 283.389 111.275 283.145 111.379C283.464 111.55 283.745 111.757 283.99 112.002C284.242 112.239 284.472 112.502 284.68 112.791C284.954 113.191 285.162 113.621 285.303 114.081C285.444 114.54 285.514 115.026 285.514 115.537V116.982H284.847V115.537C284.847 115.004 284.754 114.503 284.569 114.036C284.391 113.562 284.139 113.147 283.812 112.791C283.456 112.391 283.045 112.083 282.577 111.868C282.11 111.646 281.602 111.535 281.053 111.535H280.408V116.982H279.74V111.535Z" fill="#1F5C68"/>
<path d="M299.09 112.791C299.09 112.272 298.994 111.794 298.801 111.357C298.615 110.912 298.363 110.534 298.044 110.223C297.733 109.904 297.373 109.656 296.965 109.478C296.557 109.3 296.131 109.211 295.686 109.211C295.181 109.211 294.718 109.315 294.295 109.522C293.88 109.723 293.524 109.989 293.227 110.323C292.93 110.656 292.697 111.038 292.526 111.468C292.363 111.898 292.281 112.339 292.281 112.791C292.281 113.265 292.367 113.718 292.537 114.147C292.708 114.577 292.942 114.959 293.238 115.293C293.542 115.619 293.902 115.878 294.317 116.071C294.733 116.264 295.189 116.36 295.686 116.36C296.153 116.36 296.594 116.267 297.01 116.082C297.425 115.889 297.785 115.634 298.089 115.315C298.393 114.989 298.634 114.611 298.812 114.181C298.997 113.743 299.09 113.28 299.09 112.791ZM299.757 112.791C299.757 113.347 299.657 113.884 299.457 114.403C299.257 114.915 298.975 115.37 298.612 115.771C298.256 116.163 297.825 116.478 297.321 116.716C296.824 116.953 296.279 117.071 295.686 117.071C295.129 117.071 294.603 116.96 294.106 116.738C293.616 116.508 293.186 116.201 292.815 115.815C292.445 115.43 292.152 114.978 291.937 114.459C291.721 113.94 291.614 113.384 291.614 112.791C291.614 112.206 291.721 111.653 291.937 111.135C292.152 110.608 292.441 110.152 292.804 109.767C293.175 109.382 293.605 109.078 294.095 108.855C294.592 108.626 295.122 108.511 295.686 108.511C296.227 108.511 296.743 108.618 297.232 108.833C297.729 109.048 298.163 109.348 298.534 109.734C298.912 110.119 299.209 110.575 299.424 111.101C299.646 111.62 299.757 112.183 299.757 112.791Z" fill="#1F5C68"/>
<path d="M313.917 116.982H313.249V109.322C312.604 109.374 311.992 109.604 311.413 110.012C310.842 110.412 310.345 111.057 309.923 111.946C309.737 111.516 309.511 111.142 309.244 110.823C308.984 110.497 308.706 110.227 308.41 110.012C308.12 109.797 307.82 109.63 307.508 109.511C307.204 109.393 306.908 109.326 306.618 109.311V116.982H305.951V108.6C306.366 108.6 306.759 108.633 307.13 108.7C307.501 108.766 307.85 108.878 308.176 109.033C308.502 109.181 308.81 109.382 309.099 109.634C309.396 109.878 309.67 110.178 309.923 110.534C310.39 109.86 310.954 109.37 311.614 109.067C312.274 108.755 313.041 108.6 313.917 108.6V116.982Z" fill="#1F5C68"/>
<path d="M325.965 116.982H325.297V109.333H320.803V116.982H320.124L320.135 108.6H325.965V116.982Z" fill="#1F5C68"/>
<path d="M337.907 116.938V109.3H334.703C334.406 109.559 334.128 109.934 333.869 110.423C333.617 110.912 333.398 111.49 333.212 112.157C333.027 112.817 332.879 113.554 332.767 114.37C332.663 115.178 332.615 116.034 332.623 116.938H331.911C331.896 116.167 331.929 115.404 332.011 114.648C332.1 113.884 332.226 113.169 332.389 112.502C332.56 111.828 332.764 111.216 333.001 110.668C333.246 110.112 333.516 109.656 333.813 109.3H332.634V108.6L338.575 108.589V116.938H337.907Z" fill="#1F5C68"/>
<path d="M346.133 114.714C346.163 115.011 346.226 115.259 346.323 115.459C346.419 115.652 346.545 115.808 346.701 115.926C346.857 116.037 347.042 116.119 347.257 116.171C347.472 116.215 347.713 116.238 347.98 116.238H351.318V116.938H347.98C347.646 116.938 347.328 116.901 347.023 116.827C346.727 116.745 346.46 116.616 346.222 116.438C345.992 116.26 345.803 116.03 345.655 115.748C345.514 115.467 345.433 115.122 345.41 114.714L345.421 111.524H344.498V110.823H345.421C345.451 110.438 345.536 110.104 345.677 109.823C345.826 109.541 346.015 109.311 346.245 109.133C346.482 108.948 346.749 108.815 347.046 108.733C347.35 108.644 347.669 108.6 348.002 108.6H351.017V109.3H348.002C347.735 109.3 347.494 109.326 347.279 109.378C347.072 109.422 346.89 109.504 346.734 109.622C346.586 109.741 346.46 109.9 346.356 110.101C346.26 110.293 346.189 110.534 346.145 110.823H351.017V111.524H346.133V114.714Z" fill="#1F5C68"/>
<path d="M358.095 111.535H357.183V110.834H358.095V108.6H358.763V110.823H360.665C360.91 110.823 361.14 110.764 361.355 110.645C361.57 110.527 361.759 110.367 361.922 110.167C362.086 109.967 362.215 109.734 362.312 109.467C362.416 109.193 362.471 108.904 362.479 108.6H363.146C363.146 108.904 363.105 109.2 363.024 109.489C362.95 109.771 362.838 110.038 362.69 110.29C362.549 110.534 362.375 110.753 362.167 110.946C361.967 111.131 361.744 111.275 361.5 111.379C361.819 111.55 362.1 111.757 362.345 112.002C362.597 112.239 362.827 112.502 363.035 112.791C363.309 113.191 363.517 113.621 363.658 114.081C363.799 114.54 363.869 115.026 363.869 115.537V116.982H363.202V115.537C363.202 115.004 363.109 114.503 362.924 114.036C362.746 113.562 362.494 113.147 362.167 112.791C361.811 112.391 361.4 112.083 360.932 111.868C360.465 111.646 359.957 111.535 359.408 111.535H358.763V116.982H358.095V111.535Z" fill="#1F5C68"/>
<path d="M369.869 112.791C369.869 112.198 369.976 111.642 370.191 111.123C370.407 110.605 370.696 110.152 371.059 109.767C371.43 109.374 371.86 109.067 372.35 108.844C372.847 108.622 373.373 108.511 373.929 108.511C374.441 108.511 374.927 108.607 375.387 108.8C375.854 108.992 376.31 109.293 376.755 109.7L376.277 110.189C375.913 109.856 375.539 109.611 375.153 109.456C374.768 109.293 374.36 109.211 373.929 109.211C373.44 109.211 372.988 109.311 372.572 109.511C372.157 109.704 371.797 109.967 371.493 110.301C371.196 110.627 370.963 111.009 370.792 111.446C370.622 111.876 370.536 112.324 370.536 112.791C370.536 113.265 370.622 113.721 370.792 114.159C370.97 114.588 371.211 114.966 371.515 115.293C371.819 115.619 372.175 115.882 372.583 116.082C372.999 116.275 373.447 116.371 373.929 116.371C374.241 116.371 374.53 116.334 374.797 116.26C375.064 116.178 375.305 116.078 375.52 115.96C375.735 115.834 375.925 115.693 376.088 115.537C376.258 115.382 376.407 115.222 376.533 115.059L377 115.548C376.674 115.993 376.24 116.36 375.698 116.649C375.164 116.931 374.575 117.071 373.929 117.071C373.373 117.071 372.847 116.96 372.35 116.738C371.86 116.516 371.43 116.212 371.059 115.826C370.696 115.441 370.407 114.989 370.191 114.47C369.976 113.951 369.869 113.391 369.869 112.791Z" fill="#1F5C68"/>
</svg>
